<?xml version="1.0" encoding="UTF-8" standalone="no"?>
<svg
   xmlns:dc="http://purl.org/dc/elements/1.1/"
   xmlns:cc="http://creativecommons.org/ns#"
   xmlns:rdf="http://www.w3.org/1999/02/22-rdf-syntax-ns#"
   xmlns:svg="http://www.w3.org/2000/svg"
   xmlns="http://www.w3.org/2000/svg"
   xmlns:sodipodi="http://sodipodi.sourceforge.net/DTD/sodipodi-0.dtd"
   xmlns:inkscape="http://www.inkscape.org/namespaces/inkscape"
   sodipodi:docname="icone_pdf_lehub_final.svg"
   inkscape:version="1.0 (4035a4fb49, 2020-05-01)"
   id="svg1095"
   version="1.1"
   viewBox="0 0 68.384026 68.383911"
   height="68.383911mm"
   width="68.384026mm">
  <defs
     id="defs1089" />
  <sodipodi:namedview
     inkscape:window-maximized="1"
     inkscape:window-y="-9"
     inkscape:window-x="-9"
     inkscape:window-height="1001"
     inkscape:window-width="1920"
     fit-margin-bottom="0"
     fit-margin-right="0"
     fit-margin-left="0"
     fit-margin-top="0"
     showgrid="false"
     inkscape:document-rotation="0"
     inkscape:current-layer="layer1"
     inkscape:document-units="mm"
     inkscape:cy="532.08658"
     inkscape:cx="372.0868"
     inkscape:zoom="0.35"
     inkscape:pageshadow="2"
     inkscape:pageopacity="0.0"
     borderopacity="1.0"
     bordercolor="#666666"
     pagecolor="#ffffff"
     id="base" />
  <metadata
     id="metadata1092">
    <rdf:RDF>
      <cc:Work
         rdf:about="">
        <dc:format>image/svg+xml</dc:format>
        <dc:type
           rdf:resource="http://purl.org/dc/dcmitype/StillImage" />
        <dc:title></dc:title>
      </cc:Work>
    </rdf:RDF>
  </metadata>
  <g
     transform="translate(-7.3853681,-7.3854256)"
     id="layer1"
     inkscape:groupmode="layer"
     inkscape:label="Calque 1">
    <g
       transform="translate(-78.135937,-4.7024841)"
       id="g1043">
      <ellipse
         style="fill:#e14045;fill-opacity:1;stroke:none;stroke-width:1.61609"
         id="path136032"
         cx="119.71326"
         cy="46.279865"
         rx="34.191952"
         ry="34.191956" />
      <path
         id="rect136223"
         style="fill:#b43337;fill-opacity:1;stroke:none;stroke-width:1.09556;stroke-miterlimit:4;stroke-dasharray:none;stroke-opacity:1"
         d="m 138.32902,34.489884 -27.65619,33.151982 13.7449,12.504663 a 34.19195,34.191958 0 0 0 29.4876,-33.866666 34.19195,34.191958 0 0 0 -0.004,-0.463021 z" />
      <path
         id="rect136034"
         style="fill:#ffffff;fill-opacity:1;stroke:none;stroke-width:1.5875"
         d="m 107.88844,26.189634 h 23.00624 l 7.5875,8.116667 v 27.260565 c 0,3.324 -2.676,6 -6,6 h -24.59374 c -3.324,0 -6,-2.676 -6,-6 V 32.189634 c 0,-3.324 2.676,-6 6,-6 z"
         sodipodi:nodetypes="sccssssss" />
      <path
         style="color:#000000;font-style:normal;font-variant:normal;font-weight:normal;font-stretch:normal;font-size:medium;line-height:normal;font-family:sans-serif;font-variant-ligatures:normal;font-variant-position:normal;font-variant-caps:normal;font-variant-numeric:normal;font-variant-alternates:normal;font-variant-east-asian:normal;font-feature-settings:normal;font-variation-settings:normal;text-indent:0;text-align:start;text-decoration:none;text-decoration-line:none;text-decoration-style:solid;text-decoration-color:#000000;letter-spacing:normal;word-spacing:normal;text-transform:none;writing-mode:lr-tb;direction:ltr;text-orientation:mixed;dominant-baseline:auto;baseline-shift:baseline;text-anchor:start;white-space:normal;shape-padding:0;shape-margin:0;inline-size:0;clip-rule:nonzero;display:inline;overflow:visible;visibility:visible;isolation:auto;mix-blend-mode:normal;color-interpolation:sRGB;color-interpolation-filters:linearRGB;solid-color:#000000;solid-opacity:1;vector-effect:none;fill:#b43337;fill-opacity:1;fill-rule:nonzero;stroke:none;stroke-width:1.5875;stroke-linecap:butt;stroke-linejoin:miter;stroke-miterlimit:4;stroke-dasharray:none;stroke-dashoffset:0;stroke-opacity:1;color-rendering:auto;image-rendering:auto;shape-rendering:auto;text-rendering:auto;enable-background:accumulate;stop-color:#000000"
         d="m 138.57808,34.688077 -2.70699,-0.08456 c -2.89658,-0.09048 -5.20507,-2.307086 -5.20507,-5.205078 v -3.256864 h -1.5879 v 3.256864 c 0,3.750007 3.04297,6.792968 6.79297,6.792968 l 2.70699,0.08456 z"
         id="path136099"
         sodipodi:nodetypes="cssccsscc" />
      <path
         sodipodi:nodetypes="csssscc"
         d="m 136.18781,37.863468 v 22.642313 c 0,2.8254 -2.34042,5.100001 -5.24765,5.100001 h -21.5097 c -2.90723,0 -5.24765,-2.274601 -5.24765,-5.100001 v -22.85398 z"
         style="fill:#b43337;fill-opacity:1;stroke:none;stroke-width:1.36876"
         id="rect136034-8" />
      <g
         aria-label="PDF"
         id="text136118"
         style="font-style:normal;font-variant:normal;font-weight:bold;font-stretch:normal;font-size:7.76111px;line-height:1.25;font-family:'Berlin Sans FB Demi';-inkscape-font-specification:'Berlin Sans FB Demi, Bold';font-variant-ligatures:normal;font-variant-caps:normal;font-variant-numeric:normal;font-variant-east-asian:normal;letter-spacing:0px;word-spacing:0px;fill:#b43337;fill-opacity:1;stroke:none;stroke-width:0.264583">
        <path
           d="m 110.60385,31.390956 q 0,0.917084 -0.48128,1.485524 -0.51538,0.602548 -1.4211,0.602548 -0.15158,0 -0.45854,-0.01516 -0.30317,-0.01895 -0.45475,-0.01895 -0.16296,0 -0.16296,0.140216 0,0.174321 0.0341,0.519175 0.0341,0.344854 0.0341,0.515387 0,0.08716 -0.0796,0.08716 -0.23117,0 -0.6935,-0.01516 -0.46233,-0.01137 -0.6935,-0.01137 -0.1099,0 -0.1099,-0.109898 0,-0.420646 0.0114,-1.261939 0.0152,-0.845081 0.0152,-1.265727 0,-1.189936 -0.10232,-2.501139 l -0.004,-0.05306 q -0.008,-0.072 0.11369,-0.08716 0.29559,-0.0379 1.30362,-0.0379 0.59497,0 1.14067,0.01516 0.89814,0.02653 1.44763,0.564651 0.56086,0.553282 0.56086,1.447629 z m -1.51205,0.06063 q 0,-0.882978 -0.86024,-0.882978 -0.60634,0 -0.63665,0.06821 -0.0265,0.04926 -0.0265,0.875399 0,0.117478 0.008,0.348644 0.0114,0.227376 0.0114,0.344854 0,0.07579 0.68213,0.07579 0.82234,0 0.82234,-0.829924 z"
           style="font-style:normal;font-variant:normal;font-weight:bold;font-stretch:normal;font-size:7.76111px;font-family:'Berlin Sans FB Demi';-inkscape-font-specification:'Berlin Sans FB Demi, Bold';font-variant-ligatures:normal;font-variant-caps:normal;font-variant-numeric:normal;font-variant-east-asian:normal;fill:#b43337;fill-opacity:1;stroke-width:0.264583"
           id="path137411" />
        <path
           d="m 116.07225,31.993503 q 0,1.114143 -0.71623,1.932698 -0.63287,0.731394 -1.77733,0.76929 -0.21979,0.0076 -1.20888,0.0076 -0.18569,0 -0.56086,-0.01137 -0.37138,-0.01137 -0.55707,-0.01137 -0.1099,0 -0.1099,-0.08716 0,-0.416856 0.0303,-1.250569 0.0341,-0.837503 0.0341,-1.254359 0,-0.435805 -0.0341,-1.303624 -0.0303,-0.871609 -0.0303,-1.303624 0,-0.07958 0.1099,-0.09474 0.26906,-0.03032 0.88297,-0.03032 1.1672,0 1.51206,0.03411 0.89813,0.09095 1.40594,0.454753 0.47749,0.341064 0.75413,0.95498 0.26527,0.57981 0.26527,1.193726 z m -1.45142,0 q 0,-0.640443 -0.38275,-1.045931 -0.38654,-0.420646 -1.02319,-0.420646 -0.5836,0 -0.5836,0.155374 0,0.223586 -0.008,0.674549 -0.008,0.447173 -0.008,0.67076 0,0.219797 0.008,0.663181 0.008,0.439594 0.008,0.663181 0,0.162953 0.60634,0.162953 0.6556,0 1.03077,-0.435805 0.35243,-0.413067 0.35243,-1.087616 z"
           style="font-style:normal;font-variant:normal;font-weight:bold;font-stretch:normal;font-size:7.76111px;font-family:'Berlin Sans FB Demi';-inkscape-font-specification:'Berlin Sans FB Demi, Bold';font-variant-ligatures:normal;font-variant-caps:normal;font-variant-numeric:normal;font-variant-east-asian:normal;fill:#b43337;fill-opacity:1;stroke-width:0.264583"
           id="path137413" />
        <path
           d="m 120.5743,30.598928 q 0,0.04169 -0.0758,0.04169 -0.28422,0 -0.86403,-0.04926 -0.57602,-0.04927 -0.86403,-0.04927 -0.3638,0 -0.42444,0.02653 -0.14021,0.06442 -0.14021,0.363802 0,0.360013 0.1819,0.409278 0.0758,0.01895 0.23117,0.01895 0.26148,0 0.78065,-0.02653 0.52297,-0.03032 0.78445,-0.03032 0.12506,0 0.12506,0.66697 0,0.57981 -0.0417,0.67455 -0.0265,0.06821 -0.10232,0.06821 0.0493,0 -0.23874,-0.02653 -0.40549,-0.0379 -1.22783,-0.0379 -0.26527,0 -0.29938,0.0038 -0.19327,0.03032 -0.19327,0.162953 0,0.538124 0.0455,1.2392 0.0379,0.632864 0.0379,0.564652 0,0.09853 -0.23874,0.113688 0.0644,-0.0038 -0.33728,-0.0038 -0.70866,0 -0.91329,-0.04926 -0.1099,-0.02653 -0.1099,-0.117478 0,-0.420646 0.0265,-1.261938 0.0303,-0.845082 0.0303,-1.265728 0,-0.500227 -0.0455,-1.258148 -0.0682,-1.170988 -0.072,-1.258149 l -0.004,-0.04547 q -0.004,-0.09474 0.11369,-0.09474 0.28043,0 0.84508,0.01137 0.56844,0.01137 0.85267,0.01137 0.30316,0 0.9095,-0.04548 0.61013,-0.04547 0.91329,-0.04547 0.18949,0 0.21222,0.155374 0,0.162953 0.0152,0.488858 0.008,0.08337 0.0493,0.322117 0.0379,0.208428 0.0379,0.322116 z"
           style="font-style:normal;font-variant:normal;font-weight:bold;font-stretch:normal;font-size:7.76111px;font-family:'Berlin Sans FB Demi';-inkscape-font-specification:'Berlin Sans FB Demi, Bold';font-variant-ligatures:normal;font-variant-caps:normal;font-variant-numeric:normal;font-variant-east-asian:normal;fill:#b43337;fill-opacity:1;stroke-width:0.264583"
           id="path137415" />
      </g>
      <rect
         style="fill:#c63e48;fill-opacity:1;stroke:none;stroke-width:1.42433;stroke-opacity:1"
         id="rect136120"
         width="11"
         height="8"
         x="105.71523"
         y="44.737438" />
      <rect
         y="55.379478"
         x="105.75217"
         height="8"
         width="11"
         id="rect136120-1"
         style="fill:#c63e48;fill-opacity:1;stroke:none;stroke-width:1.42433;stroke-opacity:1" />
      <rect
         y="44.737438"
         x="119.28246"
         height="2"
         width="14.5"
         id="rect136120-7"
         style="fill:#c63e48;fill-opacity:1;stroke:none;stroke-width:0.817651;stroke-opacity:1" />
      <rect
         style="fill:#c63e48;fill-opacity:1;stroke:none;stroke-width:0.81765;stroke-opacity:1"
         id="rect136120-7-8"
         width="14.5"
         height="2"
         x="119.28246"
         y="48.897949" />
      <rect
         style="fill:#c63e48;fill-opacity:1;stroke:none;stroke-width:0.81765;stroke-opacity:1"
         id="rect136120-7-86"
         width="14.5"
         height="2"
         x="119.28246"
         y="53.05846" />
      <rect
         style="fill:#c63e48;fill-opacity:1;stroke:none;stroke-width:0.81765;stroke-opacity:1"
         id="rect136120-7-4"
         width="14.5"
         height="2"
         x="119.28246"
         y="57.218967" />
      <rect
         style="fill:#c63e48;fill-opacity:1;stroke:none;stroke-width:0.81765;stroke-opacity:1"
         id="rect136120-7-7"
         width="14.5"
         height="2"
         x="119.28246"
         y="61.379478" />
      <rect
         style="fill:#c63e48;fill-opacity:1;stroke:none;stroke-width:1.00141;stroke-opacity:1"
         id="rect136120-7-5"
         width="14.5"
         height="3"
         x="119.28246"
         y="39.683624" />
      <path
         style="fill:#ffffff;fill-opacity:1;stroke:#e14045;stroke-width:1;stroke-linecap:butt;stroke-linejoin:miter;stroke-miterlimit:4;stroke-dasharray:none;stroke-opacity:1"
         d="m 122.94603,54.044978 v 10.354167 h -3.94167 l 7.5,7 7.5,-7 h -3.94167 V 54.044978 Z"
         id="path136221"
         sodipodi:nodetypes="cccccccc" />
      <g
         transform="matrix(1.953125,0,0,1.953125,-100.11106,-37.59623)"
         id="g969">
        <g
           style="fill:#e14045;fill-opacity:1"
           id="g883"
           transform="matrix(0.01763889,0,0,-0.01763889,107.3371,41.599557)">
          <path
             d="m 0,0 v 0 c 1.756,-1.812 4.648,-1.856 6.46,-0.101 l 89.376,86.629 c 1.812,1.756 1.857,4.649 0.101,6.461 -1.756,1.812 -4.648,1.857 -6.46,0.1 L 0.101,6.461 C -1.711,4.705 -1.756,1.812 0,0"
             style="fill:#e14045;fill-opacity:1;fill-rule:evenodd;stroke:none"
             id="path885"
             inkscape:connector-curvature="0" />
        </g>
        <g
           id="g951">
          <g
             transform="matrix(0.01763889,0,0,-0.01763889,108.99111,42.583959)"
             id="g837"
             style="fill:none;fill-opacity:1;stroke:#e14045;stroke-opacity:1">
            <path
               inkscape:connector-curvature="0"
               id="path839"
               style="fill:none;fill-opacity:1;stroke:#e14045;stroke-width:7.463;stroke-linecap:butt;stroke-linejoin:miter;stroke-miterlimit:10;stroke-dasharray:none;stroke-opacity:1"
               d="m 0,0 v 0 l -89.825,0.025 c -2.182,0 -4.029,1.631 -4.287,3.805 -1.044,8.816 -4.123,21.264 -12.931,30.416 -0.009,0.018 -0.017,0.026 -0.035,0.043 -21.772,18.392 -34.254,45.211 -34.254,73.669 0.008,53.172 43.269,96.433 96.433,96.433 53.163,0 96.424,-43.261 96.424,-96.433 C 51.525,79.31 38.887,52.327 16.856,33.936 8.402,25.085 5.323,12.629 4.279,3.804 4.037,1.63 2.191,0 0,0 Z" />
          </g>
          <g
             transform="matrix(0.01763889,0,0,-0.01763889,107.35608,43.624273)"
             id="g841"
             style="stroke:#e14045;stroke-opacity:1">
            <path
               inkscape:connector-curvature="0"
               id="path843"
               style="fill:none;stroke:#e14045;stroke-width:7.36;stroke-linecap:round;stroke-linejoin:miter;stroke-miterlimit:10;stroke-dasharray:none;stroke-opacity:1"
               d="M 0,0 95.046,-0.216" />
          </g>
          <g
             transform="matrix(0.01763889,0,0,-0.01763889,107.35608,43.285983)"
             id="g845"
             style="fill:#e14045;fill-opacity:1;stroke:#e14045;stroke-opacity:1">
            <path
               inkscape:connector-curvature="0"
               id="path847"
               style="fill:#e14045;fill-opacity:1;stroke:#e14045;stroke-width:7.36;stroke-linecap:round;stroke-linejoin:miter;stroke-miterlimit:10;stroke-dasharray:none;stroke-opacity:1"
               d="M 0,0 95.046,-0.216" />
          </g>
          <g
             transform="matrix(0.01763889,0,0,-0.01763889,107.35608,42.945815)"
             id="g849"
             style="fill:#e14045;fill-opacity:1;stroke:#e14045;stroke-opacity:1">
            <path
               inkscape:connector-curvature="0"
               id="path851"
               style="fill:#e14045;fill-opacity:1;stroke:#e14045;stroke-width:7.36;stroke-linecap:round;stroke-linejoin:miter;stroke-miterlimit:10;stroke-dasharray:none;stroke-opacity:1"
               d="M 0,0 95.046,-0.216" />
          </g>
          <path
             d="m 109.02932,41.599557 v 0 c -0.031,0.03196 -0.082,0.03274 -0.11395,0.0018 L 107.33888,40.0733 c -0.032,-0.03097 -0.0328,-0.082 -0.002,-0.113965 0.031,-0.03196 0.082,-0.03276 0.11395,-0.0018 l 1.57649,1.528021 c 0.032,0.03097 0.0327,0.082 0.002,0.113965"
             style="fill:#e14045;fill-opacity:1;fill-rule:evenodd;stroke:none;stroke-width:0.0176389"
             id="path877"
             inkscape:connector-curvature="0" />
          <g
             transform="matrix(0.01763889,0,0,-0.01763889,108.1832,39.58229)"
             id="g879"
             style="fill:#e14045;fill-opacity:1">
            <path
               inkscape:connector-curvature="0"
               id="path881"
               style="fill:#e14045;fill-opacity:1;fill-rule:evenodd;stroke:none"
               d="m 0,0 v 0 c 2.523,0 4.569,-2.046 4.569,-4.569 v -124.47 c 0,-2.523 -2.046,-4.568 -4.569,-4.568 -2.523,0 -4.568,2.045 -4.568,4.568 L -4.569,-4.569 C -4.569,-2.046 -2.523,0 0,0" />
          </g>
          <g
             transform="matrix(0.01763889,0,0,-0.01763889,109.36155,40.760634)"
             id="g887"
             style="fill:#e14045;fill-opacity:1">
            <path
               inkscape:connector-curvature="0"
               id="path889"
               style="fill:#e14045;fill-opacity:1;fill-rule:evenodd;stroke:none"
               d="m 0,0 v 0 c 0,-2.523 -2.045,-4.569 -4.569,-4.569 h -124.469 c -2.524,0 -4.569,2.046 -4.569,4.569 0,2.523 2.045,4.569 4.569,4.569 H -4.569 C -2.045,4.569 0,2.523 0,0" />
          </g>
        </g>
      </g>
    </g>
  </g>
</svg>
