<svg width="50" height="50" viewBox="0 0 50 50" fill="none" xmlns="http://www.w3.org/2000/svg">
<g clip-path="url(#clip0)">
<path d="M32.0339 26.3257H31.6169C30.5416 26.3257 29.6699 25.4541 29.6699 24.3787C29.6699 23.3037 30.5416 22.4321 31.6169 22.4321H32.0339C36.4105 22.4321 40.5735 20.329 43.1705 16.8061C43.6569 16.1462 43.423 15.508 43.2998 15.2639C43.177 15.0201 42.802 14.4532 41.9819 14.4532H38.4632C37.3878 14.4532 36.5162 13.5816 36.5162 12.5062C36.5162 11.4308 37.3878 10.5596 38.4632 10.5596H41.9819C44.02 10.5596 45.8568 11.6895 46.7754 13.5083C47.6944 15.3272 47.5139 17.476 46.3047 19.1163C42.9771 23.6306 37.6423 26.3257 32.0339 26.3257Z" fill="#FAB838"/>
<path d="M25.917 41.1054H24.0467L21.0857 30.4448H28.9737L25.917 41.1054Z" fill="#FAD200"/>
<path d="M38.3192 6.54346H11.7403C11.2737 6.54346 10.8652 6.86275 10.7599 7.31708C10.5176 8.35963 10.3872 9.44492 10.3811 10.5596H8.27193C6.25281 10.5596 4.36835 11.6498 3.43222 13.4389C2.47321 15.2722 2.64258 17.4554 3.8671 19.1167C6.44889 22.619 10.2392 25.0253 14.4273 25.9286C17.0953 29.7765 20.8589 32.6036 25.0299 32.6036C33.1209 32.6036 39.6802 21.9628 39.6802 13.8715V10.6443C39.6802 9.49985 39.5483 8.38634 39.3003 7.31784C39.1946 6.86313 38.7861 6.54346 38.3192 6.54346V6.54346ZM7.00164 16.8065C6.51488 16.1466 6.74872 15.508 6.87194 15.2642C6.99515 15.0205 7.37014 14.4536 8.1903 14.4536H10.3918C10.4696 16.5216 10.9563 18.731 11.7719 20.8722C9.9134 19.9082 8.27002 18.5273 7.00164 16.8065Z" fill="#FAD200"/>
<path d="M26.7284 30.4448L23.8621 40.4416L24.0467 41.1054H25.917L28.9738 30.4448H26.7284Z" fill="#FAB700"/>
<path d="M46.7754 13.5087C45.8565 11.6899 44.0197 10.56 41.9819 10.56H39.6789C39.6725 9.4453 39.5424 8.36002 39.3001 7.31784C39.1945 6.86313 38.7859 6.54346 38.3194 6.54346H34.4726C34.7114 7.5925 34.8385 8.6835 34.8385 9.80464V13.0323C34.8385 20.8448 28.7231 31.0334 21.0178 31.7258C22.2931 32.2877 23.6385 32.6039 25.0294 32.6039C29.19 32.6039 32.9452 29.7902 35.6121 25.9565C39.8529 25.0756 43.6958 22.656 46.3047 19.1167C47.5139 17.4764 47.6944 15.3276 46.7754 13.5087ZM43.1705 16.8065C41.8701 18.5708 40.1764 19.9784 38.2603 20.9447C39.0922 18.781 39.5889 16.5452 39.6679 14.4536H41.9819C42.802 14.4536 43.177 15.0205 43.2999 15.2642C43.4231 15.508 43.6569 16.1466 43.1705 16.8065Z" fill="#FAB700"/>
<path d="M7.66312 31.1545C9.94965 31.6847 11.6895 33.1133 12.4387 33.819C12.6352 34.004 12.5593 34.3317 12.3014 34.4114C11.318 34.7155 9.12682 35.2327 6.84067 34.7025C4.55414 34.1726 2.81388 32.744 2.06505 32.0383C1.8686 31.8529 1.94451 31.5256 2.20238 31.4459C3.18543 31.1415 5.37697 30.6242 7.66312 31.1545Z" fill="#1DC2FF"/>
<path d="M4.08525 26.4937C5.32312 27.7315 5.89723 29.3043 6.12954 30.1321C6.20355 30.3953 5.95979 30.6391 5.69658 30.5655C4.86879 30.3328 3.29599 29.7587 2.05812 28.5208C0.819867 27.2829 0.245755 25.7101 0.0134403 24.8823C-0.0605649 24.6187 0.183194 24.375 0.44679 24.449C1.2742 24.6813 2.84738 25.2558 4.08525 26.4937Z" fill="#1DC2FF"/>
<path d="M11.0919 32.7286C9.98031 33.0235 8.06228 33.3561 6.07101 32.8945C4.69887 32.5764 3.52432 31.9348 2.6416 31.3198C2.47643 31.3637 2.32918 31.4064 2.20177 31.4457C1.94428 31.5254 1.86874 31.8531 2.0652 32.0381C2.81441 32.7438 4.55429 34.1725 6.84044 34.7023C9.12658 35.2326 11.3177 34.7153 12.3012 34.4113C12.5594 34.3311 12.6342 34.0031 12.437 33.8177C12.1375 33.5354 11.6794 33.1379 11.0919 32.7286Z" fill="#00A2FF"/>
<path d="M2.05801 26.8538C1.30003 26.0962 0.79153 25.2131 0.457363 24.452C0.453548 24.4509 0.450115 24.4501 0.446681 24.449C0.183086 24.375 -0.060292 24.6187 0.0133317 24.882C0.245647 25.7097 0.82014 27.2825 2.05801 28.5204C3.2955 29.7583 4.8683 30.3324 5.69609 30.5647C5.96006 30.6391 6.20306 30.3946 6.12905 30.1306C6.03865 29.8098 5.89712 29.3768 5.68541 28.895C4.85533 28.6612 3.29092 28.0871 2.05801 26.8538Z" fill="#00A2FF"/>
<path d="M42.337 31.1545C40.0508 31.6847 38.3106 33.1133 37.5614 33.819C37.3649 34.004 37.4408 34.3317 37.6991 34.4114C38.6821 34.7155 40.8733 35.2327 43.1598 34.7025C45.446 34.1726 47.1862 32.744 47.9351 32.0383C48.1315 31.8529 48.0556 31.5256 47.7977 31.4459C46.8147 31.1415 44.6235 30.6242 42.337 31.1545Z" fill="#1DC2FF"/>
<path d="M45.9147 26.4935C44.6768 27.7314 44.1027 29.3042 43.8704 30.132C43.7964 30.3952 44.0401 30.639 44.3033 30.5654C45.1311 30.3327 46.7039 29.7586 47.9422 28.5207C49.1801 27.2828 49.7542 25.71 49.9865 24.8822C50.0605 24.619 49.8167 24.3752 49.5535 24.4489C48.7257 24.6812 47.1529 25.2557 45.9147 26.4935Z" fill="#1DC2FF"/>
<path d="M38.9081 32.7286C40.0197 33.0235 41.9377 33.3561 43.9294 32.8945C45.3012 32.5764 46.4757 31.9348 47.3584 31.3198C47.5236 31.3637 47.6709 31.4064 47.7983 31.4457C48.0558 31.5254 48.1313 31.8531 47.9348 32.0381C47.186 32.7438 45.4457 34.1725 43.1596 34.7023C40.8734 35.2326 38.6823 34.7153 37.6992 34.4113C37.4406 34.3311 37.3658 34.0031 37.563 33.8177C37.8629 33.5354 38.3206 33.1379 38.9081 32.7286Z" fill="#00A2FF"/>
<path d="M47.9423 26.8538C48.6999 26.0962 49.2084 25.2131 49.543 24.452C49.5464 24.4509 49.5498 24.4501 49.5533 24.449C49.8169 24.375 50.0606 24.6187 49.9866 24.882C49.7543 25.7097 49.1798 27.2825 47.9423 28.5204C46.7044 29.7583 45.1316 30.3324 44.3038 30.5647C44.0399 30.6391 43.7969 30.3946 43.8713 30.1306C43.9613 29.8098 44.1028 29.3768 44.3145 28.895C45.1446 28.6612 46.709 28.0871 47.9423 26.8538Z" fill="#00A2FF"/>
<path d="M14.1315 34.4491C16.4428 34.0413 18.6034 34.6745 19.5689 35.0305C19.8222 35.1239 19.881 35.455 19.6746 35.6294C18.8891 36.2943 17.0753 37.6283 14.7639 38.0361C12.4526 38.4435 10.292 37.8102 9.32646 37.4543C9.07316 37.3609 9.0148 37.0297 9.22079 36.8554C10.0062 36.1905 11.8201 34.8565 14.1315 34.4491Z" fill="#1DC2FF"/>
<path d="M17.7132 34.5171C16.8026 35.2232 15.1749 36.2711 13.1725 36.6243C11.8679 36.8544 10.6117 36.7525 9.59092 36.5564C9.45016 36.6655 9.32656 36.7666 9.22089 36.8559C9.0149 37.0302 9.07365 37.3613 9.32694 37.4544C10.2924 37.8107 12.4531 38.4436 14.764 38.0362C17.0754 37.6287 18.8889 36.2947 19.6747 35.6298C19.8807 35.4555 19.8223 35.1244 19.569 35.0309C19.1483 34.8761 18.5009 34.6685 17.7132 34.5171Z" fill="#00A2FF"/>
<path d="M35.8684 34.4491C33.5571 34.0413 31.3965 34.6745 30.431 35.0305C30.1777 35.1239 30.1193 35.455 30.3253 35.6294C31.1107 36.2943 32.9246 37.6283 35.2359 38.0361C37.5473 38.4435 39.7079 37.8102 40.6734 37.4543C40.9267 37.3609 40.9851 37.0297 40.7791 36.8554C39.9936 36.1905 38.1797 34.8565 35.8684 34.4491Z" fill="#1DC2FF"/>
<path d="M32.2867 34.5171C33.1973 35.2232 34.825 36.2711 36.8273 36.6243C38.132 36.8544 39.3881 36.7525 40.4089 36.5564C40.5497 36.6655 40.6737 36.7666 40.779 36.8559C40.985 37.0302 40.9262 37.3613 40.6729 37.4544C39.7074 37.8107 37.5468 38.4436 35.2358 38.0362C32.9245 37.6287 31.111 36.2947 30.3256 35.6298C30.1192 35.4555 30.1776 35.1244 30.4312 35.0309C30.8516 34.8761 31.4993 34.6685 32.2867 34.5171Z" fill="#00A2FF"/>
<path d="M31.4362 43.4349C31.9153 43.4349 32.2022 42.9054 31.9443 42.5014C30.3383 39.9868 27.8381 38.3701 25.0298 38.3701C22.221 38.3701 19.7208 39.9868 18.1152 42.5014C17.8574 42.905 18.1439 43.4349 18.623 43.4349H31.4362Z" fill="#FAD200"/>
<path d="M25.0297 38.3701C24.501 38.3701 23.9837 38.4285 23.481 38.5383C25.9674 39.0808 28.0914 40.9054 29.3804 43.4345H31.4361C31.9149 43.4345 32.2017 42.905 31.9438 42.5014C30.3382 39.9868 27.8381 38.3701 25.0297 38.3701Z" fill="#FAB700"/>
<path d="M25.265 12.2122L25.5584 13.4096C26.0333 15.3509 27.3826 16.7192 29.2102 17.5279C29.383 17.6432 29.383 17.8976 29.2102 18.0128C27.3826 18.8215 26.0333 20.1898 25.5584 22.1311L25.265 23.3286C25.2048 23.575 24.8542 23.575 24.7939 23.3286L24.5009 22.1311C24.0256 20.1898 22.6768 18.8215 20.8491 18.0128C20.6759 17.8976 20.6759 17.6432 20.8491 17.5279C22.6768 16.7192 24.0256 15.3509 24.5009 13.4096L24.7939 12.2122C24.8542 11.9657 25.2048 11.9657 25.265 12.2122Z" fill="#FAB700"/>
<path d="M26.4419 17.528C25.2837 17.0157 24.3186 16.2775 23.6453 15.312C22.9724 16.2775 22.0073 17.0157 20.8491 17.528C20.6759 17.6432 20.6759 17.8976 20.8491 18.0128C22.0073 18.5255 22.9724 19.2633 23.6453 20.2288C24.3186 19.2633 25.2837 18.5255 26.4419 18.0128C26.615 17.8976 26.615 17.6432 26.4419 17.528Z" fill="#FFEE57"/>
</g>
<defs>
<clipPath id="clip0">
<rect width="50" height="50" fill="white"/>
</clipPath>
</defs>
</svg>
