<svg width="50" height="50" viewBox="0 0 50 50" fill="none" xmlns="http://www.w3.org/2000/svg">
<path d="M50 44.1463H6.41748V33.0333C6.41748 26.1974 11.9591 20.6558 18.795 20.6558H37.6228C44.4588 20.6558 50 26.1974 50 33.0333V44.1463Z" fill="#D2FFFF"/>
<path d="M37.4465 20.6562H31.6008C38.5337 20.6562 44.1539 26.2764 44.1539 33.2097V44.1464H49.9999V33.2097C49.9999 26.2764 44.3797 20.6562 37.4465 20.6562Z" fill="#9AF1FF"/>
<path d="M40.9498 48.1877H15.4673C14.9279 48.1877 14.4907 47.7505 14.4907 47.2111V32.9399C14.4907 32.4005 14.9279 31.9634 15.4673 31.9634H40.9498C41.4892 31.9634 41.9264 32.4005 41.9264 32.9399V47.2111C41.9264 47.7505 41.4892 48.1877 40.9498 48.1877Z" fill="#1DC2FF"/>
<path d="M40.9357 31.9634H37.3781V45.2164C37.3781 45.7634 36.9349 46.2067 36.3878 46.2067H14.4907V47.197C14.4907 47.7444 14.9344 48.1877 15.4814 48.1877H40.9357C41.4828 48.1877 41.9264 47.744 41.9264 47.197V32.9541C41.9264 32.4066 41.4828 31.9634 40.9357 31.9634Z" fill="#00A2FF"/>
<path d="M38.4639 14.9613C38.4639 13.6159 37.733 12.5116 36.7991 12.3891V8.89026C36.7991 4.95158 33.6062 1.7583 29.6672 1.7583H25.7945C21.8554 1.7583 18.6625 4.95158 18.6625 8.89026V12.3891C17.7291 12.5116 16.9978 13.6159 16.9978 14.9613C16.9978 16.3339 17.7588 17.4558 18.7198 17.5393C18.9887 19.6935 20.217 21.5482 21.9649 22.6632C22.0919 24.6266 23.7239 26.1804 25.7197 26.1804H29.7419C31.7378 26.1804 33.3697 24.6266 33.4968 22.6632C35.2446 21.5482 36.4745 19.6935 36.7434 17.5393C37.7036 17.4546 38.4639 16.3331 38.4639 14.9613Z" fill="#F7C6BA"/>
<path d="M27.7443 20.1496C29.662 20.1496 31.2161 18.5955 31.2161 16.6782H24.2729C24.2729 18.5955 25.8271 20.1496 27.7443 20.1496Z" fill="white"/>
<path d="M11.2183 36.7637H4.38881C3.85704 36.7637 3.42636 37.1944 3.42636 37.7261V39.0132H3.36189C1.50795 39.0128 0 40.5211 0 42.3751V42.5635C0 44.4175 1.50795 45.9254 3.36189 45.9254H3.42636V47.2293C3.42636 47.7611 3.85704 48.1921 4.38881 48.1921H11.2183C11.75 48.1921 12.1807 47.7611 12.1807 47.2293V37.7261C12.1807 37.1947 11.75 36.7637 11.2183 36.7637ZM3.36189 44.4816C2.30408 44.4816 1.44386 43.621 1.44386 42.5635V42.3747C1.44386 41.3169 2.30408 40.4567 3.36189 40.4567H3.42636V44.4816H3.36189Z" fill="#FF6914"/>
<path d="M38.4639 14.9615C38.4639 13.616 37.733 12.5117 36.7992 12.3892V8.89001C36.7992 5.86038 34.909 3.27364 32.2444 2.24023C33.6444 3.54257 34.5211 5.39957 34.5211 7.46217V15.2213C34.5211 19.1599 31.3285 22.3525 27.3899 22.3525H23.5157C22.6066 22.3525 21.7384 22.1808 20.9392 21.8707C22.2122 23.0547 23.9181 23.7803 25.7938 23.7803H29.668C29.7252 23.7803 29.7821 23.7773 29.8389 23.7757C29.1511 25.1528 27.7534 26.113 26.1249 26.1763C26.1821 26.1786 26.239 26.1805 26.2962 26.1805H29.742C31.7375 26.1805 33.3694 24.6272 33.4968 22.6637C35.2447 21.5487 36.4734 19.694 36.742 17.5395C37.7025 17.4559 38.4639 16.334 38.4639 14.9615Z" fill="#F4ADA5"/>
<path d="M26.8238 6.70596H28.638C32.2277 6.70596 35.3298 8.79222 36.7992 11.818V8.8895C36.7992 4.9512 33.6063 1.7583 29.668 1.7583H25.7938C21.8551 1.7583 18.6626 4.9512 18.6626 8.8895V11.818C20.132 8.79222 23.2337 6.70596 26.8238 6.70596Z" fill="#005CA0"/>
<path d="M36.7667 8.2213C36.5878 6.29755 35.6101 4.50197 34.0941 3.30072C34.0838 3.29233 34.0735 3.28432 34.0629 3.27592C33.7943 3.06535 33.5101 2.87347 33.2122 2.70258C33.208 2.70029 33.2038 2.69762 33.1996 2.69533C32.8948 2.52138 32.5759 2.36879 32.2451 2.24062C32.2448 2.24062 32.2448 2.24023 32.2444 2.24023C33.6444 3.54257 34.521 5.39957 34.521 7.46217V8.87437C35.4693 9.68385 36.2487 10.6852 36.7991 11.8182V8.88963C36.7991 8.668 36.7873 8.44255 36.7667 8.2213Z" fill="#005182"/>
<path d="M11.1906 36.7637H10.0019V45.8503C10.0019 46.3973 9.55864 46.8406 9.01161 46.8406H3.42651V47.2014C3.42651 47.7485 3.86978 48.1917 4.41681 48.1917H11.1906C11.7372 48.1917 12.1809 47.7485 12.1809 47.2014V37.754C12.1809 37.2069 11.7376 36.7637 11.1906 36.7637Z" fill="#ED500A"/>
<path d="M24.7532 13.0249C24.7532 13.7581 24.1588 14.3524 23.4257 14.3524C22.6925 14.3524 22.0981 13.7581 22.0981 13.0249C22.0981 12.2921 22.6925 11.6978 23.4257 11.6978C24.1588 11.6978 24.7532 12.2921 24.7532 13.0249Z" fill="#005182"/>
<path d="M33.052 13.0249C33.052 13.7581 32.4577 14.3524 31.7245 14.3524C30.9913 14.3524 30.397 13.7581 30.397 13.0249C30.397 12.2921 30.9913 11.6978 31.7245 11.6978C32.4577 11.6978 33.052 12.2921 33.052 13.0249Z" fill="#005182"/>
</svg>
