<svg version="1.2" baseProfile="tiny-ps" xmlns="http://www.w3.org/2000/svg" viewBox="0 0 50 50" width="50" height="50">
	<title>adva-4-svg</title>
	<style>
		tspan { white-space:pre }
		.shp0 { fill: #d2ffff } 
		.shp1 { fill: #9af1ff } 
		.shp2 { fill: #1dc2ff } 
		.shp3 { fill: #00a2ff } 
		.shp4 { fill: #f7c6ba } 
		.shp5 { fill: #ffffff } 
		.shp6 { fill: #ff6914 } 
		.shp7 { fill: #f4ada5 } 
		.shp8 { fill: #005ca0 } 
		.shp9 { fill: #005182 } 
		.shp10 { fill: #ed500a } 
	</style>
	<path id="Layer" class="shp0" d="M50 44.15L6.42 44.15L6.42 33.03C6.42 26.2 11.96 20.66 18.8 20.66L37.62 20.66C44.46 20.66 50 26.2 50 33.03L50 44.15Z" />
	<path id="Layer" class="shp1" d="M50 33.21L50 44.15L44.15 44.15L44.15 33.21C44.15 26.28 38.53 20.66 31.6 20.66L37.45 20.66C44.38 20.66 50 26.28 50 33.21Z" />
	<path id="Layer" class="shp2" d="M40.95 48.19L15.47 48.19C14.93 48.19 14.49 47.75 14.49 47.21L14.49 32.94C14.49 32.4 14.93 31.96 15.47 31.96L40.95 31.96C41.49 31.96 41.93 32.4 41.93 32.94L41.93 47.21C41.93 47.75 41.49 48.19 40.95 48.19Z" />
	<path id="Layer" class="shp3" d="M41.93 32.95L41.93 47.2C41.93 47.74 41.48 48.19 40.94 48.19L15.48 48.19C14.93 48.19 14.49 47.74 14.49 47.2L14.49 46.21L36.39 46.21C36.93 46.21 37.38 45.76 37.38 45.22L37.38 31.96L40.94 31.96C41.48 31.96 41.93 32.41 41.93 32.95Z" />
	<path id="Layer" class="shp4" d="M36.74 17.54C36.47 19.69 35.24 21.55 33.5 22.66C33.37 24.63 31.74 26.18 29.74 26.18L25.72 26.18C23.72 26.18 22.09 24.63 21.96 22.66C20.22 21.55 18.99 19.69 18.72 17.54C17.76 17.46 17 16.33 17 14.96C17 13.62 17.73 12.51 18.66 12.39L18.66 8.89C18.66 4.95 21.86 1.76 25.79 1.76L29.67 1.76C33.61 1.76 36.8 4.95 36.8 8.89L36.8 12.39C37.73 12.51 38.46 13.62 38.46 14.96C38.46 16.33 37.7 17.45 36.74 17.54Z" />
	<path id="Layer" class="shp5" d="M24.27 16.68L31.22 16.68C31.22 18.6 29.66 20.15 27.74 20.15C25.83 20.15 24.27 18.6 24.27 16.68Z" />
	<path id="Layer" fill-rule="evenodd" class="shp6" d="M12.18 37.73L12.18 47.23C12.18 47.76 11.75 48.19 11.22 48.19L4.39 48.19C3.86 48.19 3.43 47.76 3.43 47.23L3.43 45.93L3.36 45.93C1.51 45.93 0 44.42 0 42.56L0 42.38C0 40.52 1.51 39.01 3.36 39.01L3.43 39.01L3.43 37.73C3.43 37.19 3.86 36.76 4.39 36.76L11.22 36.76C11.75 36.76 12.18 37.19 12.18 37.73ZM3.43 44.48L3.43 40.46L3.36 40.46C2.3 40.46 1.44 41.32 1.44 42.37L1.44 42.56C1.44 43.62 2.3 44.48 3.36 44.48L3.43 44.48Z" />
	<path id="Layer" class="shp7" d="M36.74 17.54C36.47 19.69 35.24 21.55 33.5 22.66C33.37 24.63 31.74 26.18 29.74 26.18L26.3 26.18C26.24 26.18 26.18 26.18 26.12 26.18C27.75 26.11 29.15 25.15 29.84 23.78C29.78 23.78 29.73 23.78 29.67 23.78L25.79 23.78C23.92 23.78 22.21 23.05 20.94 21.87C21.74 22.18 22.61 22.35 23.52 22.35L27.39 22.35C31.33 22.35 34.52 19.16 34.52 15.22L34.52 7.46C34.52 5.4 33.64 3.54 32.24 2.24C34.91 3.27 36.8 5.86 36.8 8.89L36.8 12.39C37.73 12.51 38.46 13.62 38.46 14.96C38.46 16.33 37.7 17.46 36.74 17.54Z" />
	<path id="Layer" class="shp8" d="M18.66 11.82L18.66 8.89C18.66 4.95 21.86 1.76 25.79 1.76L29.67 1.76C33.61 1.76 36.8 4.95 36.8 8.89L36.8 11.82C35.33 8.79 32.23 6.71 28.64 6.71L26.82 6.71C23.23 6.71 20.13 8.79 18.66 11.82Z" />
	<path id="Layer" class="shp9" d="M36.8 8.89L36.8 11.82C36.25 10.69 35.47 9.68 34.52 8.87L34.52 7.46C34.52 5.4 33.64 3.54 32.24 2.24C32.24 2.24 32.24 2.24 32.25 2.24C32.58 2.37 32.89 2.52 33.2 2.7C33.2 2.7 33.21 2.7 33.21 2.7C33.51 2.87 33.79 3.07 34.06 3.28C34.07 3.28 34.08 3.29 34.09 3.3C35.61 4.5 36.59 6.3 36.77 8.22C36.79 8.44 36.8 8.67 36.8 8.89Z" />
	<path id="Layer" class="shp10" d="M12.18 37.75L12.18 47.2C12.18 47.75 11.74 48.19 11.19 48.19L4.42 48.19C3.87 48.19 3.43 47.75 3.43 47.2L3.43 46.84L9.01 46.84C9.56 46.84 10 46.4 10 45.85L10 36.76L11.19 36.76C11.74 36.76 12.18 37.21 12.18 37.75Z" />
	<path id="Layer" class="shp9" d="M24.75 13.02C24.75 13.76 24.16 14.35 23.43 14.35C22.69 14.35 22.1 13.76 22.1 13.02C22.1 12.29 22.69 11.7 23.43 11.7C24.16 11.7 24.75 12.29 24.75 13.02Z" />
	<path id="Layer" class="shp9" d="M33.05 13.02C33.05 13.76 32.46 14.35 31.72 14.35C30.99 14.35 30.4 13.76 30.4 13.02C30.4 12.29 30.99 11.7 31.72 11.7C32.46 11.7 33.05 12.29 33.05 13.02Z" />
</svg>