<svg version="1.2" baseProfile="tiny-ps" xmlns="http://www.w3.org/2000/svg" viewBox="0 0 50 50" width="50" height="50">
	<title>adva-3-svg</title>
	<defs>
		<clipPath clipPathUnits="userSpaceOnUse" id="cp1">
			<path d="M0 0L50 0L50 50L0 50L0 0Z" />
		</clipPath>
	</defs>
	<style>
		tspan { white-space:pre }
		.shp0 { fill: #005ca0 } 
		.shp1 { fill: #005182 } 
		.shp2 { fill: #fad200 } 
		.shp3 { fill: #fab700 } 
		.shp4 { fill: #ea9a94 } 
		.shp5 { fill: #ffded5 } 
		.shp6 { fill: #f7c6ba } 
		.shp7 { fill: #1dc2ff } 
		.shp8 { fill: #ed500a } 
		.shp9 { fill: #ff6914 } 
	</style>
	<g id="Clip-Path" clip-path="url(#cp1)">
		<g id="Layer">
			<path id="Layer" class="shp0" d="M41.11 45.83L11.8 45.83C9.6 45.83 7.81 44.04 7.81 41.84L7.81 3.98C7.81 1.78 9.6 0 11.8 0L41.11 0C41.71 0 42.19 0.48 42.19 1.07L42.19 44.75C42.19 45.35 41.71 45.83 41.11 45.83Z" />
			<path id="Layer" class="shp1" d="M41.08 0C41.69 0 42.19 0.5 42.19 1.11L42.19 44.72C42.19 45.33 41.69 45.83 41.08 45.83L37.03 45.83C37.64 45.83 38.14 45.33 38.14 44.72L38.14 1.11C38.14 0.5 37.64 0 37.03 0L41.08 0L41.08 0Z" />
			<path id="Layer" class="shp2" d="M41.11 45.83L11.8 45.83C9.6 45.83 7.81 44.04 7.81 41.84L7.81 40.61C7.81 38.41 9.6 36.63 11.8 36.63L42.19 36.63L42.19 44.75C42.19 45.35 41.71 45.83 41.11 45.83Z" />
			<path id="Layer" class="shp3" d="M28.56 40.23L12.84 40.23C12.42 40.23 12.09 39.9 12.09 39.48C12.09 39.06 12.42 38.72 12.84 38.72L28.56 38.72C28.98 38.72 29.32 39.06 29.32 39.48C29.32 39.9 28.98 40.23 28.56 40.23Z" />
			<path id="Layer" class="shp3" d="M38.03 40.23L32.11 40.23C31.7 40.23 31.36 39.9 31.36 39.48C31.36 39.06 31.7 38.72 32.11 38.72L38.03 38.72C38.45 38.72 38.79 39.06 38.79 39.48C38.79 39.9 38.45 40.23 38.03 40.23Z" />
			<path id="Layer" class="shp4" d="M15.47 27.26C16.56 27.26 16.7 26.43 16.72 25.98C16.73 25.75 16.67 25.67 16.45 25.67L15.73 25.67C15.43 25.67 15.35 25.4 15.35 25.13C15.35 24.87 15.44 24.6 15.73 24.6L17.07 24.6C17.76 24.6 17.93 24.91 17.94 25.41C18.01 27.04 17.36 28.37 15.52 28.37C13.59 28.37 12.84 26.85 12.84 24.96C12.84 23.04 13.55 21.67 15.47 21.57C16.79 21.57 17.61 22.18 17.83 23.29C17.89 23.59 17.77 23.86 17.28 23.86C16.76 23.86 16.6 23.75 16.53 23.51C16.39 22.97 16.1 22.67 15.47 22.67C14.29 22.67 14.13 23.97 14.13 24.96C14.13 25.79 14.27 27.26 15.47 27.26Z" />
			<path id="Layer" class="shp4" d="M20.24 26.01C20.24 26.73 20.63 27.25 21.37 27.25C22.1 27.25 22.51 26.73 22.51 26.01L22.51 22.07C22.51 21.73 22.82 21.63 23.13 21.63C23.44 21.63 23.76 21.73 23.76 22.07L23.76 25.9C23.76 27.65 22.77 28.38 21.37 28.38C19.98 28.38 18.99 27.65 18.99 25.9L18.99 22.07C18.99 21.73 19.3 21.63 19.61 21.63C19.93 21.63 20.24 21.73 20.24 22.07L20.24 26.01Z" />
			<path id="Layer" class="shp4" d="M26.24 27.91C26.24 28.26 25.92 28.36 25.6 28.36C25.29 28.36 24.98 28.26 24.98 27.91L24.98 22.07C24.98 21.73 25.29 21.63 25.6 21.63C25.92 21.63 26.24 21.73 26.24 22.07L26.24 27.91Z" />
			<path id="Layer" fill-rule="evenodd" class="shp4" d="M28.39 28.27C27.91 28.27 27.46 28.15 27.46 27.43L27.46 22.5C27.46 21.79 27.91 21.67 28.39 21.67L29.69 21.67C31.55 21.67 32.3 23.22 32.3 24.97C32.3 26.73 31.57 28.27 29.69 28.27L28.39 28.27ZM28.71 22.96L28.71 26.97C28.71 27.09 28.76 27.13 28.87 27.13L29.69 27.13C30.75 27.13 31.02 25.9 31.02 24.97C31.02 24.05 30.72 22.8 29.69 22.8L28.87 22.8C28.76 22.8 28.71 22.84 28.71 22.96Z" />
			<path id="Layer" class="shp4" d="M34.5 22.96L34.5 24.29L36.42 24.29C36.73 24.29 36.81 24.57 36.81 24.86C36.81 25.14 36.73 25.42 36.42 25.42L34.5 25.42L34.5 26.98C34.5 27.1 34.55 27.14 34.66 27.14L36.76 27.14C37.09 27.14 37.16 27.42 37.16 27.71C37.16 27.99 37.08 28.27 36.76 28.27L34.17 28.27C33.7 28.27 33.25 28.15 33.25 27.44L33.25 22.5C33.25 21.79 33.7 21.67 34.17 21.67L36.76 21.67C37.08 21.67 37.16 21.95 37.16 22.23C37.16 22.52 37.09 22.8 36.76 22.8L34.66 22.8C34.55 22.8 34.5 22.84 34.5 22.96Z" />
			<path id="Layer" class="shp5" d="M23.43 9.87C23.43 13.21 20.73 15.92 17.39 15.92C14.05 15.92 11.34 13.21 11.34 9.87C11.34 6.54 14.05 3.83 17.39 3.83C20.73 3.83 23.43 6.54 23.43 9.87Z" />
			<path id="Layer" class="shp5" d="M38.72 9.87C38.72 13.21 36.01 15.92 32.67 15.92C29.34 15.92 26.63 13.21 26.63 9.87C26.63 6.54 29.34 3.83 32.67 3.83C36.01 3.83 38.72 6.54 38.72 9.87Z" />
			<path id="Layer" class="shp6" d="M23.43 9.87C23.43 13.21 20.73 15.92 17.39 15.92C17.04 15.92 16.71 15.89 16.38 15.83C19.23 15.35 21.41 12.87 21.41 9.87C21.41 6.88 19.23 4.4 16.38 3.92C16.71 3.86 17.04 3.83 17.39 3.83C20.73 3.83 23.43 6.54 23.43 9.87Z" />
			<path id="Layer" class="shp6" d="M38.72 9.87C38.72 13.21 36.01 15.92 32.67 15.92C32.33 15.92 31.99 15.89 31.66 15.83C34.52 15.35 36.7 12.87 36.7 9.87C36.7 6.88 34.52 4.4 31.66 3.92C31.99 3.86 32.33 3.83 32.67 3.83C36.01 3.83 38.72 6.54 38.72 9.87Z" />
			<path id="Layer" class="shp7" d="M17.18 12.76C16.99 12.76 16.79 12.69 16.65 12.54L14.04 9.94C13.75 9.64 13.75 9.16 14.04 8.87C14.34 8.57 14.82 8.57 15.11 8.87L17.18 10.94L23.31 4.81C23.6 4.51 24.08 4.51 24.38 4.81C24.67 5.1 24.67 5.58 24.38 5.88L17.71 12.54C17.57 12.69 17.37 12.76 17.18 12.76Z" />
			<path id="Layer" class="shp8" d="M35.91 12.17C36.2 12.46 36.2 12.94 35.91 13.23C35.76 13.38 35.57 13.46 35.38 13.46C35.18 13.46 34.99 13.38 34.84 13.23L32.68 11.08L30.52 13.23C30.37 13.38 30.18 13.46 29.99 13.46C29.79 13.46 29.6 13.38 29.45 13.23C29.16 12.94 29.16 12.46 29.45 12.17L31.61 10.01L29.45 7.85C29.16 7.55 29.16 7.07 29.45 6.78C29.75 6.48 30.23 6.48 30.52 6.78L32.68 8.94L34.84 6.78C35.14 6.48 35.61 6.48 35.91 6.78C36.2 7.07 36.2 7.55 35.91 7.85L33.75 10.01L35.91 12.17Z" />
			<path id="Layer" class="shp3" d="M38.14 36.63L42.19 36.63L42.19 44.72C42.19 45.33 41.69 45.83 41.08 45.83L11.92 45.83C10.65 45.83 9.51 45.25 8.76 44.34L37.16 44.34C37.7 44.34 38.14 43.9 38.14 43.36L38.14 36.63L38.14 36.63Z" />
			<path id="Layer" class="shp9" d="M17.78 50L15.26 48.16L12.74 50L12.74 42.42L17.78 42.42L17.78 50Z" />
			<path id="Layer" class="shp8" d="M17.78 42.42L17.78 50L15.26 48.16L15.26 42.42L17.78 42.42Z" />
			<path id="Layer" class="shp3" d="M38.03 43.18L10.72 43.18C10.31 43.18 9.97 42.84 9.97 42.42C9.97 42.01 10.31 41.67 10.72 41.67L38.03 41.67C38.45 41.67 38.79 42.01 38.79 42.42C38.79 42.84 38.45 43.18 38.03 43.18Z" />
		</g>
	</g>
</svg>