<svg version="1.2" baseProfile="tiny-ps" xmlns="http://www.w3.org/2000/svg" viewBox="0 0 50 50" width="50" height="50">
	<title>adva-2-svg</title>
	<defs>
		<clipPath clipPathUnits="userSpaceOnUse" id="cp1">
			<path d="M0 0L50 0L50 50L0 50L0 0Z" />
		</clipPath>
	</defs>
	<style>
		tspan { white-space:pre }
		.shp0 { fill: #fab838 } 
		.shp1 { fill: #fad200 } 
		.shp2 { fill: #fab700 } 
		.shp3 { fill: #1dc2ff } 
		.shp4 { fill: #00a2ff } 
		.shp5 { fill: #ffee57 } 
	</style>
	<g id="Clip-Path" clip-path="url(#cp1)">
		<g id="Layer">
			<path id="Layer" class="shp0" d="M32.03 26.33L31.62 26.33C30.54 26.33 29.67 25.45 29.67 24.38C29.67 23.3 30.54 22.43 31.62 22.43L32.03 22.43C36.41 22.43 40.57 20.33 43.17 16.81C43.66 16.15 43.42 15.51 43.3 15.26C43.18 15.02 42.8 14.45 41.98 14.45L38.46 14.45C37.39 14.45 36.52 13.58 36.52 12.51C36.52 11.43 37.39 10.56 38.46 10.56L41.98 10.56C44.02 10.56 45.86 11.69 46.78 13.51C47.69 15.33 47.51 17.48 46.3 19.12C42.98 23.63 37.64 26.33 32.03 26.33Z" />
			<path id="Layer" class="shp1" d="M25.92 41.11L24.05 41.11L21.09 30.44L28.97 30.44L25.92 41.11Z" />
			<path id="Layer" fill-rule="evenodd" class="shp1" d="M38.32 6.54C38.79 6.54 39.19 6.86 39.3 7.32C39.55 8.39 39.68 9.5 39.68 10.64L39.68 13.87C39.68 21.96 33.12 32.6 25.03 32.6C20.86 32.6 17.1 29.78 14.43 25.93C10.24 25.03 6.45 22.62 3.87 19.12C2.64 17.46 2.47 15.27 3.43 13.44C4.37 11.65 6.25 10.56 8.27 10.56L10.38 10.56C10.39 9.44 10.52 8.36 10.76 7.32C10.87 6.86 11.27 6.54 11.74 6.54L38.32 6.54ZM11.77 20.87C10.96 18.73 10.47 16.52 10.39 14.45L8.19 14.45C7.37 14.45 7 15.02 6.87 15.26C6.75 15.51 6.51 16.15 7 16.81C8.27 18.53 9.91 19.91 11.77 20.87Z" />
			<path id="Layer" class="shp2" d="M28.97 30.44L25.92 41.11L24.05 41.11L23.86 40.44L26.73 30.44L28.97 30.44Z" />
			<path id="Layer" fill-rule="evenodd" class="shp2" d="M46.3 19.12C43.7 22.66 39.85 25.08 35.61 25.96C32.95 29.79 29.19 32.6 25.03 32.6C23.64 32.6 22.29 32.29 21.02 31.73C28.72 31.03 34.84 20.84 34.84 13.03L34.84 9.8C34.84 8.68 34.71 7.59 34.47 6.54L38.32 6.54C38.79 6.54 39.19 6.86 39.3 7.32C39.54 8.36 39.67 9.45 39.68 10.56L41.98 10.56C44.02 10.56 45.86 11.69 46.78 13.51C47.69 15.33 47.51 17.48 46.3 19.12ZM43.3 15.26C43.18 15.02 42.8 14.45 41.98 14.45L39.67 14.45C39.59 16.55 39.09 18.78 38.26 20.94C40.18 19.98 41.87 18.57 43.17 16.81C43.66 16.15 43.42 15.51 43.3 15.26Z" />
			<path id="Layer" class="shp3" d="M7.66 31.15C9.95 31.68 11.69 33.11 12.44 33.82C12.64 34 12.56 34.33 12.3 34.41C11.32 34.72 9.13 35.23 6.84 34.7C4.55 34.17 2.81 32.74 2.07 32.04C1.87 31.85 1.94 31.53 2.2 31.45C3.19 31.14 5.38 30.62 7.66 31.15Z" />
			<path id="Layer" class="shp3" d="M4.09 26.49C5.32 27.73 5.9 29.3 6.13 30.13C6.2 30.4 5.96 30.64 5.7 30.57C4.87 30.33 3.3 29.76 2.06 28.52C0.82 27.28 0.25 25.71 0.01 24.88C-0.06 24.62 0.18 24.38 0.45 24.45C1.27 24.68 2.85 25.26 4.09 26.49Z" />
			<path id="Layer" class="shp4" d="M12.44 33.82C12.63 34 12.56 34.33 12.3 34.41C11.32 34.72 9.13 35.23 6.84 34.7C4.55 34.17 2.81 32.74 2.07 32.04C1.87 31.85 1.94 31.53 2.2 31.45C2.33 31.41 2.48 31.36 2.64 31.32C3.52 31.93 4.7 32.58 6.07 32.89C8.06 33.36 9.98 33.02 11.09 32.73C11.68 33.14 12.14 33.54 12.44 33.82Z" />
			<path id="Layer" class="shp4" d="M5.69 28.89C5.9 29.38 6.04 29.81 6.13 30.13C6.2 30.39 5.96 30.64 5.7 30.56C4.87 30.33 3.3 29.76 2.06 28.52C0.82 27.28 0.25 25.71 0.01 24.88C-0.06 24.62 0.18 24.38 0.45 24.45C0.45 24.45 0.45 24.45 0.46 24.45C0.79 25.21 1.3 26.1 2.06 26.85C3.29 28.09 4.86 28.66 5.69 28.89Z" />
			<path id="Layer" class="shp3" d="M47.8 31.45C48.06 31.53 48.13 31.85 47.94 32.04C47.19 32.74 45.45 34.17 43.16 34.7C40.87 35.23 38.68 34.72 37.7 34.41C37.44 34.33 37.36 34 37.56 33.82C38.31 33.11 40.05 31.68 42.34 31.15C44.62 30.62 46.81 31.14 47.8 31.45Z" />
			<path id="Layer" class="shp3" d="M49.55 24.45C49.82 24.38 50.06 24.62 49.99 24.88C49.75 25.71 49.18 27.28 47.94 28.52C46.7 29.76 45.13 30.33 44.3 30.57C44.04 30.64 43.8 30.4 43.87 30.13C44.1 29.3 44.68 27.73 45.91 26.49C47.15 25.26 48.73 24.68 49.55 24.45Z" />
			<path id="Layer" class="shp4" d="M38.91 32.73C40.02 33.02 41.94 33.36 43.93 32.89C45.3 32.58 46.48 31.93 47.36 31.32C47.52 31.36 47.67 31.41 47.8 31.45C48.06 31.53 48.13 31.85 47.93 32.04C47.19 32.74 45.45 34.17 43.16 34.7C40.87 35.23 38.68 34.72 37.7 34.41C37.44 34.33 37.37 34 37.56 33.82C37.86 33.54 38.32 33.14 38.91 32.73Z" />
			<path id="Layer" class="shp4" d="M47.94 26.85C48.7 26.1 49.21 25.21 49.54 24.45C49.55 24.45 49.55 24.45 49.55 24.45C49.82 24.38 50.06 24.62 49.99 24.88C49.75 25.71 49.18 27.28 47.94 28.52C46.7 29.76 45.13 30.33 44.3 30.56C44.04 30.64 43.8 30.39 43.87 30.13C43.96 29.81 44.1 29.38 44.31 28.89C45.14 28.66 46.71 28.09 47.94 26.85Z" />
			<path id="Layer" class="shp3" d="M14.13 34.45C16.44 34.04 18.6 34.67 19.57 35.03C19.82 35.12 19.88 35.45 19.67 35.63C18.89 36.29 17.08 37.63 14.76 38.04C12.45 38.44 10.29 37.81 9.33 37.45C9.07 37.36 9.01 37.03 9.22 36.86C10.01 36.19 11.82 34.86 14.13 34.45Z" />
			<path id="Layer" class="shp4" d="M19.57 35.03C19.82 35.12 19.88 35.46 19.67 35.63C18.89 36.29 17.08 37.63 14.76 38.04C12.45 38.44 10.29 37.81 9.33 37.45C9.07 37.36 9.01 37.03 9.22 36.86C9.33 36.77 9.45 36.67 9.59 36.56C10.61 36.75 11.87 36.85 13.17 36.62C15.17 36.27 16.8 35.22 17.71 34.52C18.5 34.67 19.15 34.88 19.57 35.03Z" />
			<path id="Layer" class="shp3" d="M40.78 36.86C40.99 37.03 40.93 37.36 40.67 37.45C39.71 37.81 37.55 38.44 35.24 38.04C32.92 37.63 31.11 36.29 30.33 35.63C30.12 35.45 30.18 35.12 30.43 35.03C31.4 34.67 33.56 34.04 35.87 34.45C38.18 34.86 39.99 36.19 40.78 36.86Z" />
			<path id="Layer" class="shp4" d="M32.29 34.52C33.2 35.22 34.83 36.27 36.83 36.62C38.13 36.85 39.39 36.75 40.41 36.56C40.55 36.67 40.67 36.77 40.78 36.86C40.98 37.03 40.93 37.36 40.67 37.45C39.71 37.81 37.55 38.44 35.24 38.04C32.92 37.63 31.11 36.29 30.33 35.63C30.12 35.46 30.18 35.12 30.43 35.03C30.85 34.88 31.5 34.67 32.29 34.52Z" />
			<path id="Layer" class="shp1" d="M18.62 43.43C18.14 43.43 17.86 42.91 18.12 42.5C19.72 39.99 22.22 38.37 25.03 38.37C27.84 38.37 30.34 39.99 31.94 42.5C32.2 42.91 31.92 43.43 31.44 43.43L18.62 43.43Z" />
			<path id="Layer" class="shp2" d="M31.94 42.5C32.2 42.91 31.91 43.43 31.44 43.43L29.38 43.43C28.09 40.91 25.97 39.08 23.48 38.54C23.98 38.43 24.5 38.37 25.03 38.37C27.84 38.37 30.34 39.99 31.94 42.5Z" />
			<path id="Layer" class="shp2" d="M25.27 12.21L25.56 13.41C26.03 15.35 27.38 16.72 29.21 17.53C29.38 17.64 29.38 17.9 29.21 18.01C27.38 18.82 26.03 20.19 25.56 22.13L25.27 23.33C25.2 23.57 24.85 23.57 24.79 23.33L24.5 22.13C24.03 20.19 22.68 18.82 20.85 18.01C20.68 17.9 20.68 17.64 20.85 17.53C22.68 16.72 24.03 15.35 24.5 13.41L24.79 12.21C24.85 11.97 25.2 11.97 25.27 12.21Z" />
			<path id="Layer" class="shp5" d="M26.44 18.01C25.28 18.53 24.32 19.26 23.65 20.23C22.97 19.26 22.01 18.53 20.85 18.01C20.68 17.9 20.68 17.64 20.85 17.53C22.01 17.02 22.97 16.28 23.65 15.31C24.32 16.28 25.28 17.02 26.44 17.53C26.61 17.64 26.61 17.9 26.44 18.01Z" />
		</g>
	</g>
</svg>