<svg width="50" height="50" viewBox="0 0 50 50" fill="none" xmlns="http://www.w3.org/2000/svg">
<g clip-path="url(#clip0)">
<path d="M41.1144 45.8263H11.7966C9.59625 45.8263 7.8125 44.0426 7.8125 41.8427V3.98407C7.8125 1.78375 9.59625 0 11.7966 0H41.1144C41.7076 0 42.1886 0.481033 42.1886 1.07422V44.7521C42.1886 45.3457 41.7076 45.8263 41.1144 45.8263Z" fill="#005CA0"/>
<path d="M41.0801 0H37.0308C37.643 0 38.1389 0.496292 38.1389 1.10817V44.7182C38.1389 45.3304 37.643 45.8263 37.0308 45.8263H41.0801C41.6923 45.8263 42.1886 45.3304 42.1886 44.7182V1.10817C42.1886 0.496292 41.6923 0 41.0801 0V0Z" fill="#005182"/>
<path d="M41.1144 45.8262H11.7966C9.59625 45.8262 7.8125 44.0424 7.8125 41.8425V40.6115C7.8125 38.4112 9.59625 36.6274 11.7966 36.6274H42.1886V44.752C42.1886 45.3456 41.7076 45.8262 41.1144 45.8262Z" fill="#FAD200"/>
<path d="M28.5645 40.2345H12.8407C12.4233 40.2345 12.085 39.8962 12.085 39.4788C12.085 39.0615 12.4233 38.7231 12.8407 38.7231H28.5645C28.9818 38.7231 29.3201 39.0615 29.3201 39.4788C29.3201 39.8962 28.9818 40.2345 28.5645 40.2345Z" fill="#FAB700"/>
<path d="M38.0322 40.2345H32.1148C31.6975 40.2345 31.3591 39.8962 31.3591 39.4788C31.3591 39.0615 31.6975 38.7231 32.1148 38.7231H38.0322C38.4495 38.7231 38.7879 39.0615 38.7879 39.4788C38.7879 39.8962 38.4495 40.2345 38.0322 40.2345Z" fill="#FAB700"/>
<path d="M15.4729 27.2638C16.5578 27.2638 16.6993 26.4337 16.718 25.9809C16.7275 25.7452 16.6711 25.6697 16.454 25.6697H15.7273C15.4256 25.6697 15.35 25.3958 15.35 25.1318C15.35 24.8674 15.4351 24.6035 15.7273 24.6035H17.067C17.756 24.6035 17.9257 24.9052 17.9444 25.4148C18.0104 27.0376 17.3596 28.3678 15.5198 28.3678C13.5857 28.3678 12.8403 26.8488 12.8403 24.962C12.8403 23.0371 13.548 21.6692 15.4729 21.5654C16.7935 21.5654 17.614 22.1788 17.8311 23.292C17.8879 23.5941 17.7651 23.8581 17.2841 23.8581C16.7557 23.8581 16.5951 23.7543 16.5291 23.509C16.3876 22.9711 16.1046 22.6694 15.4725 22.6694C14.2934 22.6694 14.1328 23.9714 14.1328 24.9617C14.1331 25.7921 14.2651 27.2638 15.4729 27.2638Z" fill="#EA9A94"/>
<path d="M20.2366 26.0091C20.2366 26.7259 20.6329 27.2451 21.3688 27.2451C22.1046 27.2451 22.5101 26.7259 22.5101 26.0091V22.0655C22.5101 21.726 22.8214 21.6313 23.1331 21.6313C23.4444 21.6313 23.7556 21.726 23.7556 22.0655V25.8958C23.7556 27.6506 22.765 28.3773 21.3688 28.3773C19.9818 28.3773 18.9915 27.6506 18.9915 25.8958V22.0655C18.9915 21.726 19.3027 21.6313 19.614 21.6313C19.9253 21.6313 20.2366 21.726 20.2366 22.0655V26.0091Z" fill="#EA9A94"/>
<path d="M26.2365 27.915C26.2365 28.2641 25.9157 28.3583 25.6044 28.3583C25.2927 28.3583 24.9814 28.2641 24.9814 27.915V22.0656C24.9814 21.7261 25.2927 21.6318 25.6044 21.6318C25.9157 21.6318 26.2365 21.7261 26.2365 22.0656V27.915Z" fill="#EA9A94"/>
<path d="M28.3871 28.2734C27.9057 28.2734 27.4624 28.1506 27.4624 27.4338V22.4995C27.4624 21.7919 27.9057 21.6694 28.3871 21.6694H29.689C31.5476 21.6694 32.3021 23.2167 32.3021 24.9714C32.3021 26.7262 31.5663 28.2734 29.689 28.2734H28.3871ZM28.7079 22.9619V26.9715C28.7079 27.0939 28.7644 27.1317 28.8681 27.1317H29.689C30.7457 27.1317 31.0192 25.8957 31.0192 24.9714C31.0192 24.0468 30.7171 22.8013 29.689 22.8013H28.8681C28.7644 22.8013 28.7079 22.839 28.7079 22.9619Z" fill="#EA9A94"/>
<path d="M34.4998 22.9617V24.2919H36.4151C36.7264 24.2919 36.8111 24.575 36.8111 24.858C36.8111 25.1407 36.7264 25.4238 36.4151 25.4238H34.4998V26.9805C34.4998 27.1034 34.5471 27.1411 34.6604 27.1411H36.7642C37.085 27.1411 37.1605 27.4238 37.1605 27.7068C37.1605 27.9899 37.0755 28.2729 36.7642 28.2729H34.1698C33.6979 28.2729 33.2451 28.1505 33.2451 27.4429V22.499C33.2451 21.7914 33.6979 21.6689 34.1698 21.6689H36.7642C37.0755 21.6689 37.1605 21.952 37.1605 22.235C37.1605 22.5181 37.085 22.8011 36.7642 22.8011H34.6604C34.5471 22.8011 34.4998 22.8389 34.4998 22.9617Z" fill="#EA9A94"/>
<path d="M23.4333 9.87398C23.4333 13.2122 20.7271 15.9184 17.3889 15.9184C14.0506 15.9184 11.3445 13.2122 11.3445 9.87398C11.3445 6.53574 14.0506 3.82959 17.3889 3.82959C20.7271 3.82959 23.4333 6.53574 23.4333 9.87398Z" fill="#FFDED5"/>
<path d="M38.7184 9.87398C38.7184 13.2122 36.0123 15.9184 32.674 15.9184C29.3358 15.9184 26.6296 13.2122 26.6296 9.87398C26.6296 6.53574 29.3358 3.82959 32.674 3.82959C36.0123 3.82959 38.7184 6.53574 38.7184 9.87398Z" fill="#FFDED5"/>
<path d="M17.3888 3.82959C17.044 3.82959 16.7068 3.86011 16.3779 3.91542C19.2348 4.39684 21.4114 6.88058 21.4114 9.87398C21.4114 12.8678 19.2348 15.3515 16.3779 15.8329C16.7068 15.8882 17.044 15.9187 17.3888 15.9187C20.7271 15.9187 23.4332 13.2126 23.4332 9.87398C23.4332 6.53574 20.7271 3.82959 17.3888 3.82959Z" fill="#F7C6BA"/>
<path d="M32.674 3.82959C32.3295 3.82959 31.9919 3.86011 31.6631 3.91542C34.5199 4.39684 36.6966 6.88058 36.6966 9.87398C36.6966 12.8678 34.5199 15.3515 31.6631 15.8329C31.9919 15.8882 32.3295 15.9187 32.674 15.9187C36.0122 15.9187 38.7184 13.2126 38.7184 9.87398C38.7184 6.53574 36.0122 3.82959 32.674 3.82959Z" fill="#F7C6BA"/>
<path d="M17.1803 12.7613C16.9869 12.7613 16.7935 12.6877 16.6458 12.5401L14.0427 9.93731C13.7478 9.64206 13.7478 9.16369 14.0427 8.86843C14.3379 8.57356 14.8163 8.57356 15.1116 8.86843L17.1803 10.9371L23.309 4.80807C23.6042 4.5132 24.0826 4.5132 24.3778 4.80807C24.6727 5.10333 24.6727 5.58169 24.3778 5.87695L17.7143 12.5401C17.5671 12.6877 17.3733 12.7613 17.1803 12.7613Z" fill="#1DC2FF"/>
<path d="M33.7502 10.0066L35.9097 7.84707C36.2046 7.55219 36.2046 7.07345 35.9097 6.77857C35.6145 6.48331 35.1361 6.48331 34.8408 6.77857L32.6813 8.93769L30.5222 6.77857C30.227 6.48331 29.7486 6.48331 29.4533 6.77857C29.1585 7.07345 29.1585 7.55219 29.4533 7.84707L31.6128 10.0066L29.4533 12.1661C29.1585 12.4609 29.1585 12.9397 29.4533 13.2346C29.601 13.3822 29.7944 13.4558 29.9878 13.4558C30.1812 13.4558 30.3746 13.3818 30.5222 13.2346L32.6817 11.0751L34.8408 13.2346C34.9885 13.3822 35.1819 13.4558 35.3753 13.4558C35.5687 13.4558 35.7621 13.3818 35.9097 13.2346C36.2046 12.9397 36.2046 12.4609 35.9097 12.1661L33.7502 10.0066Z" fill="#ED500A"/>
<path d="M38.1394 36.6274V43.36C38.1394 43.8994 37.7019 44.3366 37.1629 44.3366H8.75635C9.51013 45.2467 10.6488 45.8266 11.9229 45.8266H41.0802C41.6924 45.8266 42.1887 45.3303 42.1887 44.718V36.6278H38.1394V36.6274Z" fill="#FAB700"/>
<path d="M17.7772 50.0001L15.2595 48.1587L12.7415 50.0001V42.4233H17.7772V50.0001Z" fill="#FF6914"/>
<path d="M15.2595 42.4233V48.1587L17.7772 50.0001V42.4233H15.2595Z" fill="#ED500A"/>
<path d="M38.0321 43.179H10.7242C10.3069 43.179 9.96851 42.841 9.96851 42.4233C9.96851 42.0063 10.3069 41.668 10.7242 41.668H38.0321C38.4494 41.668 38.7878 42.006 38.7878 42.4233C38.7878 42.841 38.4494 43.179 38.0321 43.179Z" fill="#FAB700"/>
</g>
<defs>
<clipPath id="clip0">
<rect width="50" height="50" fill="white"/>
</clipPath>
</defs>
</svg>
