<svg width="38" height="42" viewBox="0 0 38 42" fill="none" xmlns="http://www.w3.org/2000/svg">
	<path d="M28.7999 12.6C28.0999 13.3 28 14.3 28.5 15.1H28.4L28.7 15.4L31.5 18.2C33.7999 20.6 33.7999 24.3 31.5 26.7L23.2 35C21.1 37.2 17.7 37.5 15.2 35.7C12.6 33.7 12.1 29.9 14.1 27.2C14.2 27 14.4 26.8 14.6 26.7L20.2 21.1C20.9 20.4 22 20.2 22.7999 20.8C23.6999 21.5 23.9 22.7 23.2 23.6C23.2 23.7 23.1 23.7 23.1 23.8L17.5 29.4C16.7999 30.1 16.6 31.2 17.2 32C17.9 32.9 19.1 33.1 20 32.4C20.1 32.4 20.1 32.3 20.2 32.3L27.2999 25.2C28.9 23.7 28.9 21.1 27.4 19.6C27.4 19.6 27.4 19.6 27.2999 19.5L14.7 6.89999C14 6.09999 12.7 6.09999 12 6.79999C12 6.79999 12 6.79999 11.9 6.89999L2.69995 16.1C-0.800049 19.6 -0.800049 25.3 2.69995 28.8L12.6 38.7C16.1 42.2 21.7999 42.2 25.2999 38.7L35.2 28.8C38.7 25.3 38.7 19.6 35.2 16.1L31.7 12.6C30.9 11.8 29.5999 11.8 28.7999 12.6Z" fill="#2389EE">
	</path>
	<path d="M17.5 1.29989C18.2 0.499893 19.5 0.499893 20.2 1.19989C20.2 1.19989 20.2 1.19989 20.3 1.29989L26 6.89989C26.8 7.59989 26.8 8.89989 26.1 9.59989C26.1 9.59989 26.1 9.59989 26 9.69989C25.3 10.4999 24 10.4999 23.3 9.79989C23.3 9.79989 23.3 9.79989 23.2 9.69989L17.5 3.99989C16.8 3.29989 16.7 2.19989 17.4 1.39989L17.5 1.29989Z" fill="#FF6636">
	</path>
</svg>
