<svg version="1.2" baseProfile="tiny-ps" xmlns="http://www.w3.org/2000/svg" viewBox="0 0 50 50" width="50" height="50">
	<title>user-guide-advantage-svg</title>
	<style>
		tspan { white-space:pre }
		.shp0 { fill: #ffc738 } 
		.shp1 { fill: #ff6914 } 
		.shp2 { fill: #ed500a } 
		.shp3 { fill: #0882bf } 
		.shp4 { fill: #ff8900 } 
		.shp5 { fill: #1dc2ff } 
		.shp6 { fill: #00a2ff } 
		.shp7 { fill: #1dd9ff } 
		.shp8 { fill: #ffffff } 
		.shp9 { fill: #ffece9 } 
		.shp10 { fill: #005ca0 } 
		.shp11 { fill: #005182 } 
		.shp12 { fill: #ffdf57 } 
	</style>
	<path id="Layer" class="shp0" d="M47.58 23.66C47.58 24.35 47.02 24.91 46.33 24.91C45.64 24.91 45.08 24.35 45.08 23.66C45.08 22.97 45.64 22.41 46.33 22.41C47.02 22.41 47.58 22.97 47.58 23.66Z" />
	<path id="Layer" class="shp1" d="M24.92 49.67C23.12 49.67 21.67 48.21 21.67 46.42L21.67 33.13L28.17 33.13L28.17 46.42C28.17 48.21 26.71 49.67 24.92 49.67Z" />
	<path id="Layer" class="shp2" d="M28.17 33.13L28.17 46.42C28.17 48.21 26.71 49.67 24.92 49.67C24.54 49.67 24.17 49.6 23.83 49.48C25.09 49.03 25.99 47.83 25.99 46.42L25.99 33.13L28.17 33.13Z" />
	<path id="Layer" class="shp3" d="M18.96 42.1L5.09 42.1C4.69 42.1 4.36 41.78 4.36 41.37C4.36 40.97 4.69 40.64 5.09 40.64L18.96 40.64C19.37 40.64 19.7 40.97 19.7 41.37C19.7 41.78 19.37 42.1 18.96 42.1Z" />
	<path id="Layer" class="shp4" d="M42.42 18.5C42.42 28.17 34.59 36 24.92 36C15.25 36 7.41 28.17 7.41 18.5C7.41 8.83 15.25 1 24.92 1C34.59 1 42.42 8.83 42.42 18.5Z" />
	<path id="Layer" class="shp1" d="M42.42 18.5C42.42 28.17 34.59 36 24.92 36C24.2 36 23.5 35.96 22.8 35.88C31.47 34.83 38.2 27.45 38.2 18.5C38.2 9.55 31.47 2.17 22.8 1.12C23.5 1.04 24.2 1 24.92 1C34.59 1 42.42 8.83 42.42 18.5Z" />
	<path id="Layer" class="shp5" d="M39.8 18.5C39.8 26.72 33.14 33.38 24.92 33.38C16.7 33.38 10.04 26.72 10.04 18.5C10.04 10.28 16.7 3.62 24.92 3.62C33.14 3.62 39.8 10.28 39.8 18.5Z" />
	<path id="Layer" class="shp6" d="M39.8 18.5C39.8 26.72 33.14 33.38 24.92 33.38C24.4 33.38 23.88 33.35 23.38 33.3C30.87 32.53 36.71 26.2 36.71 18.5C36.71 10.8 30.87 4.47 23.38 3.7C23.88 3.65 24.4 3.62 24.92 3.62C33.14 3.62 39.8 10.28 39.8 18.5Z" />
	<path id="Layer" class="shp7" d="M33.63 6.44L12.86 27.21C11.08 24.76 10.04 21.75 10.04 18.5C10.04 10.28 16.7 3.62 24.92 3.62C28.17 3.62 31.18 4.67 33.63 6.44Z" />
	<path id="Layer" class="shp8" d="M35.21 18.89C35.21 18.89 31.98 25.84 24.92 25.84C17.71 25.84 14.63 18.89 14.63 18.89C14.63 18.89 17.74 11.94 24.92 11.94C32.01 11.94 35.21 18.89 35.21 18.89Z" />
	<path id="Layer" class="shp9" d="M35.21 18.89C35.21 18.89 31.98 25.84 24.92 25.84C23.62 25.84 22.46 25.62 21.43 25.25C21.43 25.25 21.44 25.25 21.44 25.25C28.96 25.25 33.02 18.99 34.1 17.06C34.85 18.1 35.21 18.89 35.21 18.89Z" />
	<path id="Layer" class="shp10" d="M28.55 19.04C28.55 21.05 26.92 22.67 24.92 22.67C22.91 22.67 21.29 21.05 21.29 19.04C21.29 17.04 22.91 15.41 24.92 15.41C26.92 15.41 28.55 17.04 28.55 19.04Z" />
	<path id="Layer" class="shp11" d="M28.55 19.04C28.55 21.05 26.92 22.67 24.92 22.67C24.55 22.67 24.2 22.62 23.86 22.51C25.35 22.06 26.43 20.68 26.43 19.04C26.43 17.41 25.35 16.02 23.86 15.57C24.2 15.47 24.55 15.41 24.92 15.41C26.92 15.41 28.55 17.04 28.55 19.04Z" />
	<path id="Layer" class="shp6" d="M33.63 6.44L32.22 7.85C29.89 5.57 26.8 4.05 23.38 3.7C22.6 3.7 24.64 3.62 24.49 3.63C27.75 3.53 30.99 4.53 33.63 6.44Z" />
	<path id="Layer" class="shp3" d="M45.29 4.71L39.17 4.71C38.77 4.71 38.44 4.38 38.44 3.98C38.44 3.57 38.77 3.24 39.17 3.24L45.29 3.24C45.69 3.24 46.02 3.57 46.02 3.98C46.02 4.38 45.69 4.71 45.29 4.71Z" />
	<path id="Layer" class="shp3" d="M49.27 7.66L42.35 7.66C41.94 7.66 41.61 7.33 41.61 6.93C41.61 6.52 41.94 6.19 42.35 6.19L49.27 6.19C49.67 6.19 50 6.52 50 6.93C50 7.33 49.67 7.66 49.27 7.66Z" />
	<path id="Layer" class="shp3" d="M45.29 1.76L39.17 1.76C38.77 1.76 38.44 1.43 38.44 1.03C38.44 0.62 38.77 0.29 39.17 0.29L45.29 0.29C45.69 0.29 46.02 0.62 46.02 1.03C46.02 1.43 45.69 1.76 45.29 1.76Z" />
	<path id="Layer" class="shp3" d="M8.44 36.2L0.73 36.2C0.33 36.2 0 35.88 0 35.47C0 35.07 0.33 34.74 0.73 34.74L8.44 34.74C8.84 34.74 9.17 35.07 9.17 35.47C9.17 35.88 8.84 36.2 8.44 36.2Z" />
	<path id="Layer" class="shp3" d="M8.44 33.26L0.73 33.26C0.33 33.26 0 32.93 0 32.52C0 32.12 0.33 31.79 0.73 31.79L8.44 31.79C8.84 31.79 9.17 32.12 9.17 32.52C9.17 32.93 8.84 33.26 8.44 33.26Z" />
	<path id="Layer" class="shp3" d="M18.96 39.15L5.09 39.15C4.69 39.15 4.36 38.83 4.36 38.42C4.36 38.02 4.69 37.69 5.09 37.69L18.96 37.69C19.37 37.69 19.7 38.02 19.7 38.42C19.7 38.83 19.37 39.15 18.96 39.15Z" />
	<path id="Layer" class="shp3" d="M49.19 32.51L42.35 32.51C41.94 32.51 41.61 32.19 41.61 31.78C41.61 31.38 41.94 31.05 42.35 31.05L49.19 31.05C49.59 31.05 49.92 31.38 49.92 31.78C49.92 32.19 49.59 32.51 49.19 32.51Z" />
	<path id="Layer" class="shp3" d="M49.27 35.46L42.35 35.46C41.94 35.46 41.61 35.14 41.61 34.73C41.61 34.33 41.94 34 42.35 34L49.27 34C49.67 34 50 34.33 50 34.73C50 35.14 49.67 35.46 49.27 35.46Z" />
	<path id="Layer" class="shp12" d="M46.61 23.66C46.61 24.18 46.29 24.62 45.84 24.81C45.39 24.62 45.08 24.18 45.08 23.66C45.08 23.14 45.39 22.69 45.84 22.5C46.29 22.69 46.61 23.14 46.61 23.66Z" />
	<path id="Layer" class="shp0" d="M35.67 41.38C35.67 42.47 34.78 43.35 33.69 43.35C32.6 43.35 31.71 42.47 31.71 41.38C31.71 40.28 32.6 39.4 33.69 39.4C34.78 39.4 35.67 40.28 35.67 41.38Z" />
	<path id="Layer" class="shp12" d="M34.13 41.38C34.13 42.19 33.63 42.9 32.92 43.2C32.21 42.9 31.71 42.19 31.71 41.38C31.71 40.56 32.21 39.86 32.92 39.56C33.63 39.86 34.12 40.56 34.13 41.38Z" />
	<path id="Layer" class="shp3" d="M49.27 38.47L39.17 38.47C38.77 38.47 38.44 38.14 38.44 37.73C38.44 37.33 38.77 37 39.17 37L49.27 37C49.67 37 50 37.33 50 37.73C50 38.14 49.67 38.47 49.27 38.47Z" />
	<path id="Layer" class="shp0" d="M5.48 1.92L5.71 2.88C6.1 4.45 7.19 5.55 8.66 6.21C8.8 6.3 8.8 6.5 8.66 6.6C7.19 7.25 6.1 8.35 5.71 9.92L5.48 10.89C5.43 11.09 5.15 11.09 5.1 10.89L4.86 9.92C4.48 8.35 3.39 7.25 1.91 6.6C1.77 6.5 1.77 6.3 1.91 6.21C3.39 5.55 4.48 4.45 4.86 2.88L5.1 1.92C5.15 1.72 5.43 1.72 5.48 1.92Z" />
	<path id="Layer" class="shp12" d="M6.43 6.6C5.49 7.01 4.71 7.61 4.17 8.38C3.63 7.61 2.85 7.01 1.91 6.6C1.77 6.5 1.77 6.3 1.91 6.2C2.85 5.79 3.63 5.2 4.17 4.42C4.71 5.2 5.49 5.79 6.43 6.2C6.57 6.3 6.57 6.5 6.43 6.6Z" />
	<path id="Layer" class="shp0" d="M3.44 14.03L3.56 14.55C3.77 15.38 4.35 15.97 5.13 16.32C5.21 16.37 5.21 16.48 5.13 16.53C4.35 16.87 3.77 17.46 3.56 18.3L3.44 18.81C3.41 18.92 3.26 18.92 3.24 18.81L3.11 18.3C2.91 17.46 2.33 16.87 1.54 16.53C1.47 16.48 1.47 16.37 1.54 16.32C2.33 15.97 2.91 15.38 3.11 14.55L3.24 14.03C3.26 13.93 3.41 13.93 3.44 14.03Z" />
	<path id="Layer" class="shp12" d="M3.94 16.53C3.45 16.75 3.03 17.06 2.74 17.48C2.45 17.06 2.04 16.75 1.54 16.53C1.47 16.48 1.47 16.37 1.54 16.32C2.04 16.1 2.45 15.78 2.74 15.37C3.03 15.78 3.45 16.1 3.94 16.32C4.02 16.37 4.02 16.48 3.94 16.53Z" />
	<path id="Layer" class="shp0" d="M46.43 10.69L46.56 11.21C46.76 12.04 47.34 12.63 48.13 12.98C48.2 13.03 48.2 13.14 48.13 13.19C47.34 13.53 46.76 14.12 46.56 14.96L46.43 15.47C46.4 15.58 46.25 15.58 46.23 15.47L46.1 14.96C45.9 14.12 45.32 13.53 44.53 13.19C44.46 13.14 44.46 13.03 44.53 12.98C45.32 12.63 45.9 12.04 46.1 11.21L46.23 10.69C46.25 10.59 46.4 10.59 46.43 10.69Z" />
	<path id="Layer" class="shp12" d="M46.94 13.19C46.44 13.41 46.02 13.72 45.74 14.14C45.45 13.72 45.03 13.41 44.53 13.19C44.46 13.14 44.46 13.03 44.53 12.98C45.03 12.76 45.45 12.44 45.74 12.03C46.02 12.44 46.44 12.76 46.94 12.98C47.01 13.03 47.01 13.14 46.94 13.19Z" />
</svg>