<svg width="50" height="50" viewBox="0 0 50 50" fill="none" xmlns="http://www.w3.org/2000/svg">
<path d="M47.5837 23.6588C47.5837 24.3515 47.0222 24.9127 46.3298 24.9127C45.6375 24.9127 45.0759 24.3515 45.0759 23.6588C45.0759 22.9664 45.6375 22.4053 46.3298 22.4053C47.0222 22.4053 47.5837 22.9664 47.5837 23.6588Z" fill="#FFC738"/>
<path d="M24.9175 49.6662C23.1223 49.6662 21.667 48.2112 21.667 46.416V33.1313H28.168V46.416C28.168 48.2112 26.7127 49.6662 24.9175 49.6662Z" fill="#FF6914"/>
<path d="M25.99 33.1313V46.416C25.99 47.829 25.0882 49.031 23.8286 49.4789C24.1693 49.5998 24.5355 49.6662 24.9177 49.6662C26.7129 49.6662 28.1682 48.2112 28.1682 46.416V33.1313H25.99Z" fill="#ED500A"/>
<path d="M18.9644 42.1041H5.09221C4.68709 42.1041 4.35864 41.7753 4.35864 41.3702C4.35864 40.9651 4.68709 40.6362 5.09221 40.6362H18.9644C19.3699 40.6362 19.6983 40.9651 19.6983 41.3702C19.6983 41.7753 19.3699 42.1041 18.9644 42.1041Z" fill="#0882BF"/>
<path d="M42.4225 18.5C42.4225 28.168 34.5852 36.0049 24.9176 36.0049C15.2496 36.0049 7.41235 28.168 7.41235 18.5C7.41235 8.83203 15.2496 0.995117 24.9176 0.995117C34.5852 0.995117 42.4225 8.83203 42.4225 18.5Z" fill="#FF8900"/>
<path d="M24.9177 0.995117C24.202 0.995117 23.4971 1.03899 22.804 1.12215C31.4748 2.16623 38.1955 9.54767 38.1955 18.5C38.1955 27.4523 31.4748 34.8338 22.804 35.8779C23.4971 35.961 24.202 36.0049 24.9177 36.0049C34.5856 36.0049 42.4226 28.1676 42.4226 18.5C42.4226 8.83241 34.5853 0.995117 24.9177 0.995117Z" fill="#FF6914"/>
<path d="M39.7968 18.5003C39.7968 26.7179 33.1352 33.3795 24.9176 33.3795C16.6999 33.3795 10.0383 26.7179 10.0383 18.5003C10.0383 10.2827 16.6999 3.62109 24.9176 3.62109C33.1352 3.62109 39.7968 10.2827 39.7968 18.5003Z" fill="#1DC2FF"/>
<path d="M24.9175 3.62109C24.3968 3.62109 23.8826 3.64818 23.376 3.70006C30.8692 4.47139 36.7137 10.8034 36.7137 18.5003C36.7137 26.1972 30.8692 32.5293 23.376 33.3006C23.8826 33.3525 24.3968 33.3795 24.9175 33.3795C33.1351 33.3795 39.7967 26.7179 39.7967 18.5003C39.7967 10.2827 33.1351 3.62109 24.9175 3.62109Z" fill="#00A2FF"/>
<path d="M24.9176 3.62109C16.6999 3.62109 10.0383 10.2827 10.0383 18.5003C10.0383 21.7546 11.0836 24.7641 12.8559 27.2131L33.6303 6.43863C31.1813 4.66632 28.1715 3.62109 24.9176 3.62109Z" fill="#1DD9FF"/>
<path d="M35.2093 18.8898C35.2093 18.8898 31.9828 25.8437 24.9176 25.8437C17.7136 25.8437 14.626 18.8898 14.626 18.8898C14.626 18.8898 17.7411 11.936 24.9176 11.936C32.0103 11.936 35.2093 18.8898 35.2093 18.8898Z" fill="white"/>
<path d="M34.097 17.0591C33.0239 18.9878 28.9601 25.2511 21.4379 25.2511C21.4352 25.2511 21.433 25.2508 21.4307 25.2508C22.4644 25.6185 23.6241 25.8436 24.9177 25.8436C31.9825 25.8436 35.2094 18.8898 35.2094 18.8898C35.2094 18.8898 34.847 18.1032 34.097 17.0591Z" fill="#FFECE9"/>
<path d="M28.5453 19.0428C28.5453 21.0463 26.9211 22.6706 24.9176 22.6706C22.9141 22.6706 21.2898 21.0463 21.2898 19.0428C21.2898 17.0393 22.9141 15.415 24.9176 15.415C26.9211 15.415 28.5453 17.0393 28.5453 19.0428Z" fill="#005CA0"/>
<path d="M24.9176 15.415C24.5499 15.415 24.1951 15.47 23.8606 15.5718C25.3487 16.0242 26.4317 17.4067 26.4317 19.0428C26.4317 20.6786 25.3487 22.061 23.8606 22.5134C24.1951 22.6153 24.5499 22.6706 24.9176 22.6706C26.9211 22.6706 28.5454 21.0463 28.5454 19.0424C28.5454 17.039 26.9211 15.415 24.9176 15.415Z" fill="#005182"/>
<path d="M24.4888 3.62755C24.6421 3.62335 22.5994 3.70002 23.376 3.70002C26.8035 4.05288 29.8854 5.56961 32.2212 7.84774L33.6303 6.4386C30.986 4.52514 27.7473 3.53485 24.4888 3.62755Z" fill="#00A2FF"/>
<path d="M45.2874 4.71019H39.1732C38.768 4.71019 38.4392 4.38174 38.4392 3.97624C38.4392 3.57112 38.768 3.24268 39.1732 3.24268H45.2874C45.6929 3.24268 46.0213 3.57112 46.0213 3.97624C46.0213 4.38174 45.6929 4.71019 45.2874 4.71019Z" fill="#0882BF"/>
<path d="M49.266 7.66028H42.3454C41.9403 7.66028 41.6118 7.33145 41.6118 6.92633C41.6118 6.52121 41.9403 6.19238 42.3454 6.19238H49.266C49.6715 6.19238 50 6.52121 50 6.92633C50 7.33145 49.6715 7.66028 49.266 7.66028Z" fill="#0882BF"/>
<path d="M45.2874 1.76048H39.1732C38.768 1.76048 38.4392 1.43204 38.4392 1.02692C38.4392 0.621414 38.768 0.292969 39.1732 0.292969H45.2874C45.6929 0.292969 46.0213 0.621414 46.0213 1.02692C46.0213 1.43204 45.6929 1.76048 45.2874 1.76048Z" fill="#0882BF"/>
<path d="M8.43697 36.2043H0.733948C0.328445 36.2043 0 35.8759 0 35.4708C0 35.0653 0.328445 34.7368 0.733948 34.7368H8.43697C8.84247 34.7368 9.17091 35.0653 9.17091 35.4708C9.17091 35.8759 8.84247 36.2043 8.43697 36.2043Z" fill="#0882BF"/>
<path d="M8.43697 33.255H0.733948C0.328445 33.255 0 32.9262 0 32.5211C0 32.1159 0.328445 31.7871 0.733948 31.7871H8.43697C8.84247 31.7871 9.17091 32.1159 9.17091 32.5211C9.17091 32.9262 8.84247 33.255 8.43697 33.255Z" fill="#0882BF"/>
<path d="M18.9644 39.1545H5.09221C4.68709 39.1545 4.35864 38.8261 4.35864 38.421C4.35864 38.0155 4.68709 37.687 5.09221 37.687H18.9644C19.3699 37.687 19.6983 38.0155 19.6983 38.421C19.6983 38.8261 19.3699 39.1545 18.9644 39.1545Z" fill="#0882BF"/>
<path d="M49.1863 32.5148H42.3454C41.9403 32.5148 41.6118 32.1859 41.6118 31.7808C41.6118 31.3757 41.9403 31.0469 42.3454 31.0469H49.1863C49.5914 31.0469 49.9202 31.3757 49.9202 31.7808C49.9202 32.1859 49.5914 32.5148 49.1863 32.5148Z" fill="#0882BF"/>
<path d="M49.266 35.4646H42.3454C41.9403 35.4646 41.6118 35.1361 41.6118 34.731C41.6118 34.3255 41.9403 33.9971 42.3454 33.9971H49.266C49.6715 33.9971 50 34.3255 50 34.731C50 35.1361 49.6715 35.4646 49.266 35.4646Z" fill="#0882BF"/>
<path d="M45.8404 22.5039C45.391 22.6946 45.0759 23.1398 45.0759 23.6586C45.0759 24.1774 45.391 24.623 45.8404 24.8133C46.2898 24.623 46.6052 24.1774 46.6052 23.6586C46.6052 23.1398 46.2898 22.6946 45.8404 22.5039Z" fill="#FFDF57"/>
<path d="M35.6675 41.3757C35.6675 42.4671 34.7825 43.3521 33.6908 43.3521C32.5994 43.3521 31.7144 42.4671 31.7144 41.3757C31.7144 40.2839 32.5994 39.3989 33.6908 39.3989C34.7825 39.3989 35.6675 40.2839 35.6675 41.3757Z" fill="#FFC738"/>
<path d="M32.9198 39.5552C32.2114 39.8554 31.7144 40.5573 31.7144 41.3755C31.7144 42.1934 32.2114 42.8953 32.9198 43.1955C33.6282 42.8953 34.1252 42.1934 34.1252 41.3755C34.1249 40.5573 33.6282 39.8554 32.9198 39.5552Z" fill="#FFDF57"/>
<path d="M49.2661 38.4651H39.1732C38.768 38.4651 38.4392 38.1366 38.4392 37.7311C38.4392 37.326 38.768 36.9976 39.1732 36.9976H49.2661C49.6716 36.9976 50 37.326 50 37.7311C50 38.1366 49.6716 38.4651 49.2661 38.4651Z" fill="#0882BF"/>
<path d="M5.47724 1.91517L5.71413 2.88182C6.09751 4.44813 7.18623 5.55249 8.66099 6.20518C8.80061 6.29826 8.80061 6.50349 8.66099 6.59657C7.18623 7.24926 6.09751 8.35362 5.71413 9.91993L5.47724 10.8866C5.42879 11.0853 5.14574 11.0853 5.0973 10.8866L4.86079 9.91993C4.47703 8.35362 3.38869 7.24926 1.91355 6.59657C1.77393 6.50349 1.77393 6.29826 1.91355 6.20518C3.38869 5.55249 4.47741 4.44813 4.86079 2.88182L5.0973 1.91517C5.14574 1.71643 5.42879 1.71643 5.47724 1.91517Z" fill="#FFC738"/>
<path d="M6.4271 6.20483C5.4925 5.79132 4.71354 5.19547 4.17033 4.4165C3.62711 5.19547 2.84815 5.79132 1.91355 6.20483C1.77393 6.29791 1.77393 6.50314 1.91355 6.59622C2.84815 7.00974 3.62711 7.60559 4.17033 8.38455C4.71354 7.60559 5.4925 7.00974 6.4271 6.59622C6.56672 6.50314 6.56672 6.29791 6.4271 6.20483Z" fill="#FFDF57"/>
<path d="M3.43784 14.0338L3.56372 14.5484C3.76781 15.3823 4.34764 15.9706 5.13271 16.3177C5.2071 16.3673 5.2071 16.4768 5.13271 16.5264C4.34764 16.8735 3.76781 17.4617 3.56372 18.2956L3.43784 18.8102C3.4119 18.9163 3.26122 18.9163 3.23566 18.8102L3.10978 18.2956C2.90531 17.4617 2.32586 16.8735 1.54041 16.5264C1.46602 16.4768 1.46602 16.3673 1.54041 16.3177C2.32586 15.9706 2.90531 15.3823 3.10978 14.5484L3.23566 14.0338C3.26122 13.9282 3.4119 13.9282 3.43784 14.0338Z" fill="#FFC738"/>
<path d="M3.94367 16.318C3.44585 16.0979 3.03119 15.7809 2.74204 15.3662C2.45288 15.7809 2.03823 16.0979 1.54041 16.318C1.46602 16.3676 1.46602 16.4771 1.54041 16.5266C2.03823 16.7467 2.45288 17.0638 2.74204 17.4788C3.03119 17.0638 3.44585 16.7467 3.94367 16.5266C4.01767 16.4771 4.01767 16.3676 3.94367 16.318Z" fill="#FFDF57"/>
<path d="M46.4309 10.6948L46.5568 11.209C46.7612 12.0433 47.3407 12.6311 48.1261 12.9786C48.2005 13.0282 48.2005 13.1373 48.1261 13.1869C47.3407 13.5344 46.7612 14.1223 46.5568 14.9566L46.4309 15.4712C46.4049 15.5768 46.2546 15.5768 46.2287 15.4712L46.1028 14.9566C45.8983 14.1223 45.3189 13.5344 44.5338 13.1869C44.4594 13.1373 44.4594 13.0282 44.5338 12.9786C45.3189 12.6311 45.8983 12.0433 46.1028 11.209L46.2287 10.6948C46.2546 10.5887 46.4049 10.5887 46.4309 10.6948Z" fill="#FFC738"/>
<path d="M46.9367 12.9785C46.4389 12.7584 46.0242 12.441 45.7351 12.0264C45.4459 12.441 45.0313 12.7584 44.5338 12.9785C44.4594 13.0281 44.4594 13.1372 44.5338 13.1868C45.0313 13.4069 45.4459 13.7239 45.7351 14.1389C46.0242 13.7239 46.4389 13.4069 46.9367 13.1868C47.0111 13.1372 47.0111 13.0281 46.9367 12.9785Z" fill="#FFDF57"/>
</svg>
