<?xml version="1.0" encoding="UTF-8" standalone="no"?>
<svg
   xmlns:dc="http://purl.org/dc/elements/1.1/"
   xmlns:cc="http://creativecommons.org/ns#"
   xmlns:rdf="http://www.w3.org/1999/02/22-rdf-syntax-ns#"
   xmlns:svg="http://www.w3.org/2000/svg"
   xmlns="http://www.w3.org/2000/svg"
   xmlns:sodipodi="http://sodipodi.sourceforge.net/DTD/sodipodi-0.dtd"
   xmlns:inkscape="http://www.inkscape.org/namespaces/inkscape"
   width="151.98679mm"
   height="43.006081mm"
   viewBox="0 0 151.98679 43.006081"
   version="1.1"
   id="svg1676"
   inkscape:version="1.0.1 (3bc2e813f5, 2020-09-07)"
   sodipodi:docname="logo_techlab.svg">
  <defs
     id="defs1670" />
  <sodipodi:namedview
     id="base"
     pagecolor="#ffffff"
     bordercolor="#666666"
     borderopacity="1.0"
     inkscape:pageopacity="0.0"
     inkscape:pageshadow="2"
     inkscape:zoom="0.35"
     inkscape:cx="281.50484"
     inkscape:cy="469.84277"
     inkscape:document-units="mm"
     inkscape:current-layer="layer1"
     inkscape:document-rotation="0"
     showgrid="false"
     fit-margin-top="0"
     fit-margin-left="0"
     fit-margin-right="0"
     fit-margin-bottom="0"
     inkscape:window-width="1920"
     inkscape:window-height="1001"
     inkscape:window-x="-9"
     inkscape:window-y="-9"
     inkscape:window-maximized="1" />
  <metadata
     id="metadata1673">
    <rdf:RDF>
      <cc:Work
         rdf:about="">
        <dc:format>image/svg+xml</dc:format>
        <dc:type
           rdf:resource="http://purl.org/dc/dcmitype/StillImage" />
        <dc:title></dc:title>
      </cc:Work>
    </rdf:RDF>
  </metadata>
  <g
     inkscape:label="Calque 1"
     inkscape:groupmode="layer"
     id="layer1"
     transform="translate(-31.351844,-23.854102)">
    <g
       id="g1668"
       transform="matrix(0.35277777,0,0,-0.35277777,-41.154783,114.29782)">
      <g
         id="g973"
         transform="translate(330.8396,246.7924)">
        <path
           d="m 0,0 v -38.247 h 21.521 v 7.192 H 9.317 V 0 Z m 22.501,-22.992 c 0,-9.589 5.939,-15.691 13.348,-15.691 4.522,0 7.737,2.07 9.426,4.74 v -4.304 h 9.316 v 30.401 h -9.316 v -4.304 c -1.635,2.67 -4.849,4.74 -9.371,4.74 -7.464,0 -13.403,-5.993 -13.403,-15.582 m 22.774,-0.054 c 0,-4.849 -3.106,-7.519 -6.647,-7.519 -3.487,0 -6.647,2.724 -6.647,7.573 0,4.849 3.16,7.464 6.647,7.464 3.541,0 6.647,-2.669 6.647,-7.518 M 69.029,-12.15 V 2.07 h -9.317 v -40.317 h 9.317 v 4.25 c 1.688,-2.67 4.903,-4.686 9.371,-4.686 7.464,0 13.402,6.102 13.402,15.691 0,9.589 -5.884,15.582 -13.402,15.582 -4.359,0 -7.683,-2.016 -9.371,-4.74 m 13.293,-10.842 c 0,-4.849 -3.16,-7.573 -6.701,-7.573 -3.487,0 -6.647,2.67 -6.647,7.519 0,4.849 3.16,7.518 6.647,7.518 3.541,0 6.701,-2.615 6.701,-7.464"
           style="fill:#de376c;fill-opacity:1;fill-rule:nonzero;stroke:none"
           id="path975" />
      </g>
      <g
         id="g977"
         transform="translate(205.5306,243.469)">
        <path
           d="m 0,0 h 10.624 v -34.924 h 3.814 V 0 h 10.57 V 3.16 H 0 Z m 42.115,-8.009 c 5.502,0 10.515,-3.487 10.351,-10.406 H 31.545 c 0.436,6.919 5.176,10.406 10.57,10.406 m 13.784,-17.489 h -4.032 c -1.09,-3.977 -4.522,-6.647 -9.589,-6.647 -5.557,0 -10.406,3.65 -10.733,10.624 h 24.681 c 0.109,1.035 0.109,1.798 0.109,2.997 0,7.573 -5.34,13.784 -14.057,13.784 -8.554,0 -14.601,-5.83 -14.601,-15.31 0,-9.425 6.156,-15.309 14.601,-15.309 7.464,0 12.259,4.249 13.621,9.861 m 4.031,5.448 c 0,-9.425 6.048,-15.309 14.438,-15.309 7.464,0 12.313,4.195 13.675,10.133 h -4.086 c -1.035,-4.358 -4.576,-6.919 -9.589,-6.919 -5.829,0 -10.569,4.032 -10.569,12.095 0,8.064 4.74,12.041 10.569,12.041 5.013,0 8.609,-2.615 9.589,-6.865 h 4.086 c -1.362,6.157 -6.211,10.134 -13.675,10.134 -8.39,0 -14.438,-5.884 -14.438,-15.31 m 33.507,-14.874 h 3.814 v 16.236 c 0,7.247 3.868,10.733 9.425,10.733 5.448,0 9.044,-3.377 9.044,-9.97 v -16.999 h 3.76 v 17.435 c 0,8.717 -5.285,12.858 -11.878,12.858 -4.522,0 -8.445,-1.961 -10.351,-5.612 V 5.394 h -3.814 z"
           style="fill:#03546b;fill-opacity:1;fill-rule:nonzero;stroke:none"
           id="path979" />
      </g>
      <g
         id="g981"
         transform="translate(572.5912,170.2467)">
        <path
           d="m 0,0 h 3.57 v 8.271 c 0,4.109 -0.899,5.599 -4.369,5.599 -2.49,0 -3.542,-0.771 -4.519,-2.082 v 1.748 H -8.707 V 0 h 3.567 v 6.42 c 0,3.185 0.285,4.522 2.827,4.522 2.287,0 2.313,-1.08 2.313,-3.16 z"
           style="fill:#03546b;fill-opacity:1;fill-rule:nonzero;stroke:none"
           id="path983" />
      </g>
      <g
         id="g985"
         transform="translate(534.1104,206.2829)">
        <path
           d="M 0,0 C 1.025,-2.388 1.926,-4.778 2.722,-7.14 H -2.749 C -1.952,-4.778 -1.055,-2.388 0,0 M 8.989,-14.204 C 7.166,-7.989 4.904,-1.849 2.181,4.212 H -2.082 C -4.804,-1.9 -7.014,-8.04 -8.862,-14.204 h 4.032 c 0.335,1.285 0.695,2.592 1.078,3.903 h 7.476 c 0.384,-1.311 0.771,-2.618 1.104,-3.903 z"
           style="fill:#03546b;fill-opacity:1;fill-rule:nonzero;stroke:none"
           id="path987" />
      </g>
      <g
         id="g989"
         transform="translate(528.8174,166.8305)">
        <path
           d="M 0,0 H -3.569 V -18.417 H 0 v 7.423 c 0,2.568 0.488,3.52 2.852,3.52 2.286,0 2.286,-0.874 2.286,-3.956 v -6.987 h 3.57 v 7.628 c 0,4.29 -0.824,6.243 -4.854,6.243 -1.387,0 -3.007,-0.233 -3.854,-1.567 z"
           style="fill:#03546b;fill-opacity:1;fill-rule:nonzero;stroke:none"
           id="path991" />
      </g>
      <path
         d="m 559.324,170.226 h -1.931 v 1.568 h 1.931 z"
         style="fill:#03546b;fill-opacity:1;fill-rule:nonzero;stroke:none"
         id="path993" />
      <g
         id="g1003"
         transform="translate(551.6725,207.3361)">
        <path
           d="m 0,0 c 3.186,0 3.852,-0.386 3.852,-2.466 0,-2.594 -1.026,-2.902 -4.083,-2.902 H -2.619 V 0 Z m -6.42,-15.257 h 3.801 v 6.729 h 3.57 c 3.647,0 6.756,0.694 6.756,5.907 0,5.421 -3.339,5.78 -7.167,5.78 h -6.96 z"
           style="fill:#03546b;fill-opacity:1;fill-rule:nonzero;stroke:none"
           id="path1005" />
      </g>
      <path
         d="m 562.4264,192.0786 h 3.802 v 7.783 h 7.988 v 3.159 h -7.988 v 4.315 h 9.144 v 3.159 h -12.946 z"
         style="fill:#03546b;fill-opacity:1;fill-rule:nonzero;stroke:none"
         id="path1009" />
      <g
         id="g1019"
         transform="translate(543.2332,170.2578)">
        <path
           d="m 0,0 v 5.008 c 0,3.081 0.259,5.394 3.082,5.394 0.72,0 1.13,-0.077 1.13,-0.077 v 3.416 c 0,0 -0.282,0.078 -0.923,0.078 -1.774,0 -2.673,-0.567 -3.494,-1.979 v 1.695 H -3.57 V 0 Z"
           style="fill:#03546b;fill-opacity:1;fill-rule:nonzero;stroke:none"
           id="path1021" />
      </g>
      <path
         d="m 525.2481,170.2467 h 3.802 v 7.782 h 7.988 v 3.16 h -7.988 v 4.315 h 9.143 v 3.159 h -12.945 z"
         style="fill:#03546b;fill-opacity:1;fill-rule:nonzero;stroke:none"
         id="path1025" />
      <g
         id="g1035"
         transform="translate(591.3214,179.2099)">
        <path
           d="m 0,0 c -0.361,3.313 -2.031,4.907 -5.933,4.907 -5.321,0 -6.601,-2.928 -6.601,-7.244 0,-3.929 1.053,-6.96 6.421,-6.96 4.468,0 5.829,2.105 6.113,5.136 h -3.57 c -0.105,-1.361 -0.77,-2.209 -2.722,-2.209 -1.748,0 -2.571,0.669 -2.571,4.162 0,3.493 0.823,4.187 2.75,4.187 1.822,0 2.261,-0.669 2.543,-1.979 h 3.543 z"
           style="fill:#03546b;fill-opacity:1;fill-rule:nonzero;stroke:none"
           id="path1037" />
      </g>
      <g
         id="g1039"
         transform="translate(597.515,178.2862)">
        <path
           d="M 0,0 C 0.127,2.183 0.664,2.902 2.746,2.902 4.389,2.902 5.366,2.466 5.52,0 Z M 5.29,-4.162 C 4.931,-5.188 4.108,-5.446 2.746,-5.446 c -2.002,0 -2.643,0.618 -2.772,3.186 h 9.117 c 0,5.882 -1.412,8.091 -6.162,8.091 -5.602,0 -6.629,-3.081 -6.629,-6.961 0,-5.806 2.284,-7.243 6.475,-7.243 3.669,0 5.725,1.103 6.163,4.211 z"
           style="fill:#03546b;fill-opacity:1;fill-rule:nonzero;stroke:none"
           id="path1041" />
      </g>
      <g
         id="g1043"
         transform="translate(564.2059,148.4073)">
        <path
           d="m 0,0 h 3.568 v 8.271 c 0,4.109 -0.898,5.599 -4.365,5.599 -2.492,0 -3.546,-0.771 -4.521,-2.081 v 1.747 h -3.39 V 0 h 3.57 v 6.421 c 0,3.185 0.283,4.522 2.825,4.522 C -0.026,10.943 0,9.862 0,7.782 Z"
           style="fill:#03546b;fill-opacity:1;fill-rule:nonzero;stroke:none"
           id="path1045" />
      </g>
      <g
         id="g1047"
         transform="translate(580.0337,155.1942)">
        <path
           d="m 0,0 c 0,-3.545 -1.027,-4.187 -3.006,-4.187 -2.081,0 -3.03,0.719 -3.03,4.264 0,2.851 0.615,4.085 3.109,4.085 C -0.9,4.162 0,3.339 0,0 M 3.468,-6.78 V 11.636 H -0.103 V 5.573 c -0.591,0.771 -1.694,1.517 -3.955,1.517 -3.493,0 -5.651,-1.799 -5.651,-7.063 0,-4.393 1.514,-7.116 5.703,-7.141 1.744,0 3.133,0.229 4.033,1.619 V -6.78 Z"
           style="fill:#03546b;fill-opacity:1;fill-rule:nonzero;stroke:none"
           id="path1049" />
      </g>
      <path
         d="m 586.837,148.414 h 3.571 v 13.536 h -3.571 z"
         style="fill:#03546b;fill-opacity:1;fill-rule:nonzero;stroke:none"
         id="path1051" />
      <g
         id="g1061"
         transform="translate(587.056,165.3556)">
        <path
           d="M 0,0 C -0.46,-1.054 -0.109,-2.132 0.784,-2.406 1.679,-2.682 2.773,-2.05 3.233,-0.996 3.695,0.057 3.343,1.136 2.449,1.411 1.559,1.685 0.46,1.054 0,0"
           style="fill:#03546b;fill-opacity:1;fill-rule:nonzero;stroke:none"
           id="path1063" />
      </g>
      <g
         id="g1065"
         transform="translate(605.628,157.3775)">
        <path
           d="m 0,0 c -0.361,3.315 -2.03,4.907 -5.933,4.907 -5.316,0 -6.6,-2.928 -6.6,-7.244 0,-3.93 1.051,-6.96 6.421,-6.96 4.467,0 5.83,2.106 6.112,5.136 h -3.57 c -0.102,-1.361 -0.77,-2.209 -2.723,-2.209 -1.748,0 -2.567,0.669 -2.567,4.161 0,3.494 0.819,4.188 2.748,4.188 1.823,0 2.259,-0.668 2.542,-1.979 h 3.545 z"
           style="fill:#03546b;fill-opacity:1;fill-rule:nonzero;stroke:none"
           id="path1067" />
      </g>
      <g
         id="g1069"
         transform="translate(626.6503,155.2718)">
        <path
           d="m 0,0 c 0,3.057 0.772,4.084 3.006,4.084 2.362,0 3.031,-1.131 3.031,-4.238 0,-2.877 -0.566,-4.11 -2.928,-4.11 C 0.772,-4.264 0,-3.082 0,0 m -3.444,6.678 v -18.75 h 3.572 v 6.37 c 0.489,-0.668 1.441,-1.489 3.957,-1.489 4.265,0 5.624,2.389 5.624,7.037 0,5.548 -1.926,7.167 -5.624,7.167 -1.877,0 -3.185,-0.411 -4.136,-1.8 v 1.465 z"
           style="fill:#03546b;fill-opacity:1;fill-rule:nonzero;stroke:none"
           id="path1071" />
      </g>
      <g
         id="g1073"
         transform="translate(549.0885,161.9466)">
        <path
           d="m 0,0 v -1.301 c -0.95,1.388 -2.259,1.799 -4.135,1.799 -3.699,0 -5.625,-1.619 -5.625,-7.168 0,-4.648 1.359,-7.037 5.625,-7.037 2.516,0 3.467,0.822 3.957,1.49 v -1.324 H 3.393 V 0 Z m -3.159,-10.778 c -2.363,0 -2.928,1.231 -2.928,4.108 0,3.108 0.668,4.24 3.03,4.24 2.234,0 3.007,-1.029 3.007,-4.085 0,-3.082 -0.773,-4.263 -3.109,-4.263"
           style="fill:#03546b;fill-opacity:1;fill-rule:nonzero;stroke:none"
           id="path1075" />
      </g>
      <g
         id="g1077"
         transform="translate(616.757,161.9466)">
        <path
           d="m 0,0 v -1.301 c -0.951,1.388 -2.259,1.799 -4.135,1.799 -3.699,0 -5.624,-1.619 -5.624,-7.168 0,-4.648 1.358,-7.037 5.624,-7.037 2.516,0 3.466,0.822 3.957,1.49 v -1.324 H 3.393 V 0 Z m -3.159,-10.778 c -2.363,0 -2.929,1.231 -2.929,4.108 0,3.108 0.668,4.24 3.031,4.24 2.233,0 3.006,-1.029 3.006,-4.085 0,-3.082 -0.773,-4.263 -3.108,-4.263"
           style="fill:#03546b;fill-opacity:1;fill-rule:nonzero;stroke:none"
           id="path1079" />
      </g>
      <g
         id="g1081"
         transform="translate(557.8527,183.7864)">
        <path
           d="m 0,0 v -1.302 c -0.952,1.388 -2.259,1.799 -4.135,1.799 -3.699,0 -5.625,-1.619 -5.625,-7.167 0,-4.648 1.359,-7.038 5.625,-7.038 2.516,0 3.466,0.823 3.957,1.491 v -1.325 H 3.393 V 0 Z m -3.159,-10.779 c -2.362,0 -2.929,1.232 -2.929,4.109 0,3.108 0.668,4.239 3.031,4.239 2.234,0 3.006,-1.029 3.006,-4.085 0,-3.082 -0.772,-4.263 -3.108,-4.263"
           style="fill:#03546b;fill-opacity:1;fill-rule:nonzero;stroke:none"
           id="path1083" />
      </g>
      <g
         id="g1085"
         transform="translate(490.5932,198.8246)">
        <path
           d="M 0,0 C -8.106,-0.26 -15.792,-3.824 -21.604,-9.338 13.737,7.812 25.19,-19.197 25.57,-20.63 23.769,-8.359 13.465,0.433 0,0"
           style="fill:#f7a814;fill-opacity:1;fill-rule:nonzero;stroke:none"
           id="path1087" />
      </g>
      <g
         id="g1089"
         transform="translate(525.1487,227.0912)">
        <path
           d="m 0,0 c -3.842,1.713 -9.116,-0.461 -11.761,-4.88 -2.641,-4.415 -1.665,-9.38 2.178,-11.101 3.847,-1.71 9.124,0.469 11.77,4.872 C 4.824,-6.689 3.859,-1.721 0,0"
           style="fill:#f7a814;fill-opacity:1;fill-rule:nonzero;stroke:none"
           id="path1091" />
      </g>
      <g
         id="g1093"
         transform="translate(515.5754,196.0729)">
        <path
           d="m 0,0 c -6.162,6.087 -25.302,30.328 -23.675,37.516 1.791,7.926 13.246,14.361 23.951,17.689 -1.629,-0.282 -3.066,-0.576 -4.348,-0.911 -11.826,-3.127 -24.07,-9.857 -25.973,-18.279 -1.601,-7.07 4.68,-15.207 11.669,-22.113 4.329,-4.275 -4.738,-1.452 -12.4,-5.982 0.009,-0.017 0.027,-0.03 0.038,-0.044 C -18.642,12.814 4.71,-4.661 0,0"
           style="fill:#03546b;fill-opacity:1;fill-rule:nonzero;stroke:none"
           id="path1095" />
      </g>
      <g
         id="g1097"
         transform="translate(506.59,167.959)">
        <path
           d="m 0,0 c -1.463,-10.451 -11.13,-18.932 -21.581,-18.932 -10.459,0 -17.75,8.481 -16.292,18.932 1.463,10.467 11.122,18.935 21.582,18.935 C -5.832,18.935 1.448,10.467 0,0 M 9.046,6.968 C 8.447,9.582 -3.477,35.12 -37.088,19.772 -42.766,14.658 -46.799,7.689 -47.875,0 c -2.192,-15.685 8.749,-28.391 24.437,-28.391 15.686,0 30.178,12.706 32.377,28.391 0.329,2.407 0.357,4.735 0.107,6.968"
           style="fill:#03546b;fill-opacity:1;fill-rule:nonzero;stroke:none"
           id="path1099" />
      </g>
      <g
         id="g1101"
         transform="translate(438.7017,135.7559)">
        <path
           d="m 0,0 c 0,-0.711 0.576,-1.287 1.287,-1.287 0.711,0 1.287,0.576 1.287,1.287 v 119.333 c 0,0.711 -0.576,1.287 -1.287,1.287 C 0.576,120.62 0,120.044 0,119.333 Z"
           style="fill:#03546b;fill-opacity:1;fill-rule:nonzero;stroke:none"
           id="path1103" />
      </g>
      <g
         id="g1105"
         transform="translate(217.0248,152.3901)">
        <path
           d="M 0,0 C 0,-2.254 1.055,-3.061 3.019,-3.061 H 4.571 V -1.82 H 3.247 C 1.944,-1.82 1.468,-1.386 1.468,0 v 7.011 h 3.103 v 1.22 H 1.468 v 2.833 H 0 V 8.231 H -1.572 V 7.011 H 0 Z m 11.147,7.156 c 2.089,0 3.991,-1.324 3.929,-3.95 H 7.135 c 0.165,2.626 1.964,3.95 4.012,3.95 m 5.232,-6.639 h -1.53 c -0.414,-1.51 -1.717,-2.523 -3.64,-2.523 -2.11,0 -3.95,1.386 -4.074,4.033 h 9.368 c 0.042,0.393 0.042,0.682 0.042,1.137 0,2.875 -2.027,5.233 -5.336,5.233 -3.247,0 -5.543,-2.213 -5.543,-5.812 0,-3.578 2.337,-5.811 5.543,-5.811 2.833,0 4.653,1.613 5.17,3.743 m 1.531,2.068 c 0,-3.578 2.295,-5.811 5.48,-5.811 2.833,0 4.674,1.592 5.191,3.846 H 27.03 c -0.393,-1.654 -1.737,-2.626 -3.64,-2.626 -2.213,0 -4.012,1.53 -4.012,4.591 0,3.061 1.799,4.571 4.012,4.571 1.903,0 3.268,-0.993 3.64,-2.606 h 1.551 c -0.517,2.337 -2.358,3.847 -5.191,3.847 -3.185,0 -5.48,-2.234 -5.48,-5.812 m 12.718,-5.646 h 1.448 v 6.163 c 0,2.751 1.468,4.074 3.578,4.074 2.068,0 3.433,-1.282 3.433,-3.784 v -6.453 h 1.427 v 6.618 c 0,3.309 -2.006,4.881 -4.509,4.881 -1.716,0 -3.205,-0.745 -3.929,-2.13 v 5.935 h -1.448 z m 20.929,0 h 1.427 v 6.618 c 0,3.309 -2.026,4.881 -4.591,4.881 -1.675,0 -3.123,-0.724 -3.846,-2.13 V 8.231 H 43.099 V -3.061 h 1.448 v 6.163 c 0,2.751 1.468,4.074 3.577,4.074 2.069,0 3.433,-1.282 3.433,-3.784 z M 66.2,2.585 c 0,3.599 -2.461,5.812 -5.646,5.812 -3.165,0 -5.646,-2.213 -5.646,-5.812 0,-3.578 2.419,-5.811 5.604,-5.811 3.185,0 5.688,2.233 5.688,5.811 m -9.824,0 c 0,3.102 2.006,4.55 4.157,4.55 2.151,0 4.178,-1.448 4.178,-4.55 0,-3.102 -2.068,-4.55 -4.199,-4.55 -2.15,0 -4.136,1.448 -4.136,4.55 m 11.85,-5.646 h 1.448 v 15.304 h -1.448 z m 14.746,5.646 c 0,3.599 -2.461,5.812 -5.646,5.812 -3.164,0 -5.646,-2.213 -5.646,-5.812 0,-3.578 2.42,-5.811 5.605,-5.811 3.184,0 5.687,2.233 5.687,5.811 m -9.824,0 c 0,3.102 2.006,4.55 4.157,4.55 2.151,0 4.178,-1.448 4.178,-4.55 0,-3.102 -2.068,-4.55 -4.198,-4.55 -2.151,0 -4.137,1.448 -4.137,4.55 m 11.189,0.021 c 0,-3.537 2.295,-5.832 5.398,-5.832 2.233,0 3.805,1.22 4.467,2.668 V -3.35 c 0,-2.565 -1.676,-3.992 -3.826,-3.992 -2.068,0 -3.495,1.055 -3.971,2.585 h -1.427 c 0.455,-2.357 2.482,-3.846 5.398,-3.846 3.102,0 5.273,2.088 5.273,5.253 V 8.231 H 94.202 V 5.77 c -0.641,1.427 -2.234,2.627 -4.467,2.627 -3.103,0 -5.398,-2.255 -5.398,-5.791 m 9.865,-0.021 c 0,-2.812 -1.882,-4.55 -4.199,-4.55 -2.378,0 -4.198,1.717 -4.198,4.571 0,2.875 1.82,4.529 4.198,4.529 2.317,0 4.199,-1.737 4.199,-4.55 m 4.136,-5.646 h 1.448 V 8.231 h -1.448 z m 0.723,13.422 c 0.58,0 1.055,0.455 1.055,1.076 0,0.62 -0.475,1.054 -1.055,1.054 -0.579,0 -1.054,-0.434 -1.054,-1.054 0,-0.621 0.475,-1.076 1.054,-1.076 m 2.73,-7.755 c 0,-3.537 2.296,-5.832 5.377,-5.832 2.255,0 3.868,1.241 4.488,2.647 v -7.818 h 1.448 V 8.231 h -1.448 V 5.749 c -0.62,1.427 -2.213,2.648 -4.446,2.648 -3.123,0 -5.419,-2.255 -5.419,-5.791 m 9.865,-0.021 c 0,-2.812 -1.882,-4.55 -4.198,-4.55 -2.379,0 -4.198,1.717 -4.198,4.571 0,2.875 1.819,4.529 4.198,4.529 2.316,0 4.198,-1.737 4.198,-4.55 m 13.918,5.646 h -1.447 V 2.089 c 0,-2.751 -1.469,-4.074 -3.578,-4.074 -2.068,0 -3.433,1.282 -3.433,3.784 v 6.432 h -1.427 V 1.634 c 0,-3.309 2.026,-4.881 4.591,-4.881 1.675,0 3.164,0.745 3.847,2.172 v -1.986 h 1.447 z m 7.507,-1.075 c 2.089,0 3.992,-1.324 3.93,-3.95 h -7.942 c 0.166,2.626 1.965,3.95 4.012,3.95 m 5.233,-6.639 h -1.531 c -0.413,-1.51 -1.716,-2.523 -3.64,-2.523 -2.109,0 -3.95,1.386 -4.074,4.033 h 9.369 c 0.041,0.393 0.041,0.682 0.041,1.137 0,2.875 -2.027,5.233 -5.336,5.233 -3.246,0 -5.542,-2.213 -5.542,-5.812 0,-3.578 2.337,-5.811 5.542,-5.811 2.834,0 4.654,1.613 5.171,3.743"
           style="fill:#03546b;fill-opacity:1;fill-rule:nonzero;stroke:none"
           id="path1107" />
      </g>
      <g
         id="g1109"
         transform="translate(216.6112,186.6825)">
        <path
           d="m 0,0 v -14.456 h 6.639 v 1.179 H 1.448 V 0 Z m 12.905,-4.24 c 2.089,0 3.991,-1.323 3.929,-3.95 H 8.893 c 0.165,2.627 1.964,3.95 4.012,3.95 m 5.232,-6.638 h -1.53 c -0.414,-1.51 -1.717,-2.523 -3.64,-2.523 -2.11,0 -3.95,1.385 -4.074,4.032 h 9.368 c 0.042,0.393 0.042,0.683 0.042,1.138 0,2.875 -2.027,5.232 -5.336,5.232 -3.247,0 -5.543,-2.213 -5.543,-5.811 0,-3.578 2.337,-5.812 5.543,-5.812 2.833,0 4.653,1.614 5.17,3.744 m 7.238,-3.578 h 1.448 v 6.163 c 0,2.75 1.468,4.074 3.578,4.074 2.068,0 3.433,-1.282 3.433,-3.785 v -6.452 h 1.427 v 6.618 c 0,3.309 -2.006,4.881 -4.509,4.881 -1.716,0 -3.205,-0.745 -3.929,-2.131 V 0.848 H 25.375 Z M 47.628,-3.164 H 46.18 v -6.143 c 0,-2.75 -1.468,-4.074 -3.577,-4.074 -2.069,0 -3.434,1.283 -3.434,3.785 v 6.432 h -1.427 v -6.598 c 0,-3.308 2.027,-4.88 4.592,-4.88 1.675,0 3.164,0.744 3.846,2.171 v -1.985 h 1.448 z m 4.115,-2.503 v 6.515 h -1.427 v -15.304 h 1.427 v 2.482 c 0.683,-1.469 2.234,-2.648 4.488,-2.648 3.082,0 5.377,2.296 5.377,5.833 0,3.536 -2.275,5.79 -5.377,5.79 -2.213,0 -3.784,-1.179 -4.488,-2.668 m 8.397,-3.122 c 0,-2.854 -1.82,-4.571 -4.198,-4.571 -2.296,0 -4.199,1.737 -4.199,4.55 0,2.812 1.903,4.55 4.199,4.55 2.378,0 4.198,-1.655 4.198,-4.529 m 7.9,0 c 0,-3.537 2.295,-5.833 5.398,-5.833 2.233,0 3.805,1.2 4.467,2.689 v -2.523 h 1.447 V 0.848 h -1.447 v -6.453 c -0.724,1.489 -2.42,2.606 -4.447,2.606 -3.123,0 -5.418,-2.254 -5.418,-5.79 m 9.865,-0.021 c 0,-2.813 -1.882,-4.55 -4.199,-4.55 -2.378,0 -4.198,1.717 -4.198,4.571 0,2.874 1.82,4.529 4.198,4.529 2.317,0 4.199,-1.738 4.199,-4.55 m 8.954,4.57 c 2.089,0 3.992,-1.323 3.93,-3.95 h -7.942 c 0.166,2.627 1.965,3.95 4.012,3.95 m 5.233,-6.638 h -1.531 c -0.413,-1.51 -1.716,-2.523 -3.64,-2.523 -2.109,0 -3.95,1.385 -4.074,4.032 h 9.369 c 0.041,0.393 0.041,0.683 0.041,1.138 0,2.875 -2.027,5.232 -5.336,5.232 -3.247,0 -5.542,-2.213 -5.542,-5.811 0,-3.578 2.337,-5.812 5.542,-5.812 2.834,0 4.654,1.614 5.171,3.744 m 7.238,-3.578 h 1.448 V 0.848 H 99.33 Z m 4.156,9.989 1.82,4.467 h -1.675 l -1.199,-4.467 z m 3.413,-9.989 h 1.448 v 11.292 h -1.448 z m 0.723,13.422 c 0.579,0 1.055,0.455 1.055,1.075 0,0.621 -0.476,1.055 -1.055,1.055 -0.579,0 -1.054,-0.434 -1.054,-1.055 0,-0.62 0.475,-1.075 1.054,-1.075 m 11.85,-13.422 h 1.427 v 6.618 c 0,3.309 -2.026,4.881 -4.591,4.881 -1.675,0 -3.123,-0.724 -3.846,-2.131 v 1.924 h -1.448 v -11.292 h 1.448 v 6.163 c 0,2.75 1.468,4.074 3.577,4.074 2.069,0 3.433,-1.282 3.433,-3.785 z m 12.471,0 h 1.427 v 6.618 c 0,3.309 -2.027,4.881 -4.591,4.881 -1.675,0 -3.123,-0.724 -3.847,-2.131 v 1.924 h -1.447 v -11.292 h 1.447 v 6.163 c 0,2.75 1.469,4.074 3.578,4.074 2.068,0 3.433,-1.282 3.433,-3.785 z m 14.642,5.646 c 0,3.598 -2.461,5.811 -5.646,5.811 -3.164,0 -5.646,-2.213 -5.646,-5.811 0,-3.578 2.42,-5.812 5.605,-5.812 3.185,0 5.687,2.234 5.687,5.812 m -9.823,0 c 0,3.102 2.006,4.55 4.157,4.55 2.151,0 4.177,-1.448 4.177,-4.55 0,-3.102 -2.068,-4.55 -4.198,-4.55 -2.151,0 -4.136,1.448 -4.136,4.55 m 10.506,5.646 4.529,-11.292 h 1.634 l 4.529,11.292 h -1.531 l -3.805,-9.886 -3.805,9.886 z m 11.374,-5.625 c 0,-3.537 2.296,-5.833 5.377,-5.833 2.255,0 3.826,1.221 4.488,2.668 v -2.502 h 1.448 v 11.292 h -1.448 v -2.482 c -0.641,1.427 -2.192,2.647 -4.467,2.647 -3.102,0 -5.398,-2.254 -5.398,-5.79 m 9.865,-0.021 c 0,-2.813 -1.882,-4.55 -4.198,-4.55 -2.378,0 -4.198,1.717 -4.198,4.571 0,2.874 1.82,4.529 4.198,4.529 2.316,0 4.198,-1.738 4.198,-4.55 m 4.55,-2.585 c 0,-2.255 1.055,-3.061 3.019,-3.061 h 1.551 v 1.241 h -1.323 c -1.303,0 -1.779,0.434 -1.779,1.82 v 7.011 h 3.102 v 1.22 h -3.102 v 2.833 h -1.468 v -2.833 h -1.572 v -1.22 h 1.572 z m 6.328,-3.061 h 1.448 v 11.292 h -1.448 z m 0.724,13.422 c 0.579,0 1.055,0.455 1.055,1.075 0,0.621 -0.476,1.055 -1.055,1.055 -0.579,0 -1.055,-0.434 -1.055,-1.055 0,-0.62 0.476,-1.075 1.055,-1.075 M 194.13,-8.81 c 0,3.598 -2.461,5.811 -5.646,5.811 -3.164,0 -5.645,-2.213 -5.645,-5.811 0,-3.578 2.419,-5.812 5.604,-5.812 3.185,0 5.687,2.234 5.687,5.812 m -9.823,0 c 0,3.102 2.006,4.55 4.157,4.55 2.151,0 4.177,-1.448 4.177,-4.55 0,-3.102 -2.068,-4.55 -4.198,-4.55 -2.151,0 -4.136,1.448 -4.136,4.55 m 20.309,-5.646 h 1.427 v 6.618 c 0,3.309 -2.027,4.881 -4.591,4.881 -1.676,0 -3.123,-0.724 -3.847,-2.131 v 1.924 h -1.448 v -11.292 h 1.448 v 6.163 c 0,2.75 1.468,4.074 3.578,4.074 2.068,0 3.433,-1.282 3.433,-3.785 z"
           style="fill:#03546b;fill-opacity:1;fill-rule:nonzero;stroke:none"
           id="path1111" />
      </g>
    </g>
  </g>
</svg>
